<svg xmlns="http://www.w3.org/2000/svg" width="1440" height="863.979" viewBox="0 0 1440 863.979">
  <g id="Fisique_Logo_Title_Recovered_" data-name="Fisique Logo Title [Recovered]" transform="translate(-239.41 -98.71)" opacity="0.1">
    <g id="Group_40" data-name="Group 40" transform="translate(239.478 98.826)">
      <path id="Path_53" data-name="Path 53" d="M974.486,101.137h100.241a7.356,7.356,0,0,1,3.034,3.713c1.687,4.672,3.373,9.277,5.06,13.891,5.4,14.628,11.022,29.7,15.19,45,2.53,9,4.663,18.224,6.747,27.113,1.464,6.184,2.927,12.379,4.508,18.447,4.6,18.728,12.825,34.2,25.145,47.363,3.432,3.654,6.921,7.2,10.411,10.682,5.622,5.622,11.361,11.361,16.537,17.545,15.519,18.786,24.35,42.07,27,71.432l.562,6.243c1.347,15.073,2.7,30.651,5.516,45.734a864.248,864.248,0,0,1,13.047,107.773c.679,10.236,2.026,23.623,7.086,36.341,6.407,16.314,17.323,26.211,32.173,29.527a54.732,54.732,0,0,0,11.535,1.241c12.088,0,23.8-4.275,34.7-12.708,15.355-11.7,26.551-28.635,34.315-51.744,6.64-19.629,7.6-40.325,7.988-58.22.446-13.61,1.018-28.121,3.48-42.749,5.234-31.388,19.639-57.037,42.749-76.269,8.831-7.309,18.34-13.833,27.559-20.25l6.3-4.333c39.094-27.336,33.976-73.574,29.982-92.2-1.183-5.176-4.052-9.335-6.921-13.048-8.327-10.634-19.852-13.048-30.04-14.511a170.883,170.883,0,0,0-22.664-1.289c-3.315,0-6.582.058-9.839.116s-6.524.058-9.839.058h-5.341a101.667,101.667,0,0,1-23.962-3.15c-30.486-7.988-57.037-25.31-81.223-52.878-7.755-8.889-13.949-19.911-19.465-34.819-.9-2.307-1.125-3.267-.562-4.052h46.965c1.745,1.008,2.763,2.869,3.994,5.283,7.483,14.676,15.413,25.31,24.971,33.472,18.447,15.636,40.044,22.9,68.068,22.9,4.6,0,9.674-.223,14.85-.62,14.172-1.183,29.362-2.472,44.542-4.159,9.9-1.066,19.8-2.142,29.468-4.837,8.433-2.365,14.065-7.59,17.041-15.975a131.784,131.784,0,0,0,6.078-27.171l.281-1.968c.223-2.753.5-5.176,2.026-6.921h44.552a26.874,26.874,0,0,1,4.159,4.779c6.747,9.791,14.172,16.2,22.838,20.027,8.1,3.49,16.6,5.9,24.864,8.21l.562.165c2.646.727,5.283,1.406,7.929,2.084,10.576,2.811,21.491,5.739,31.62,10.353,14.792,6.747,24.127,14.628,30.089,25.533,10.13,18.67,13.726,39.094,10.692,60.75-4.556,32.347-19.465,55.011-45.511,69.416-21.6,11.923-44.6,19.29-62.155,24.408-3.315.96-6.64,1.91-10.013,2.811-11.3,3.15-23,6.466-34.083,11.477-19.63,8.666-31.727,24.3-35.886,46.345-2.026,10.634-2.026,21.374-2.026,31.727v5.739c0,9.9,1.57,20.366,4.721,32.066,8.55,31.834,27.559,57.376,58.326,78.247,16.431,11.08,34.257,19.852,51.579,28.354,4.168,2.084,8.385,4.11,12.6,6.243,15.975,8.046,33.016,17.158,48.817,28.916,7.319,5.341,14.744,11.535,19.581,20.25V726.974c-.785-.107-1.687-1.018-2.588-1.91-.562-.446-1.018-.96-1.464-1.347-12.825-11.245-23.061-20.647-32.066-29.527-17.778-17.555-33.52-36.729-51.744-60.187-15.975-20.415-29.187-35.323-42.972-48.322q-4.973-4.638-9.955-9.277c-12.03-11.2-24.467-22.838-35.827-35.207-11.535-12.66-21.6-27.452-30.709-45.221-11.758-23.061-16.712-48.429-20.473-70.424l-.446-2.927c-1.91-11.361-3.829-23.061-8.327-33.976-4.052-9.9-11.477-15.413-20.812-15.413a24.564,24.564,0,0,0-5.68.679,47.524,47.524,0,0,0-14.4,5.855c-15.3,8.666-22.218,23.74-27.055,37.349-5.68,16.033-7.086,33.016-8.385,49.447l-.62,7.483c-2.588,31.213-11.584,60.246-26.715,86.224-11.419,19.688-25.824,34.984-42.807,45.453-14.851,9.17-31.5,13.61-50.853,13.61a159.265,159.265,0,0,1-24.3-2.026c-17.545-2.7-29.022-12.66-33.976-29.585-2.869-9.732-3.713-20.027-4.226-28.742-.446-8.55-.727-17.158-.96-25.766-.281-9.558-.562-19.465-1.125-29.3a225.279,225.279,0,0,0-12.262-60.691c-6.863-19.465-15.975-39.879-28.635-64.346-11.981-23.226-26.667-39.152-45.056-48.6-9.451-4.837-17.322-8.152-24.583-8.1-9.732,0-17.72,5.739-26.609,19.407a521.241,521.241,0,0,1-42.972,57.2c-13.552,15.636-29.643,30.709-52.2,48.933-19.581,15.578-32.91,31.107-41.905,48.827-2.695,5.283-5.235,10.692-7.755,16.091-3.373,7.2-6.863,14.628-10.692,21.714-14.395,26.328-32.793,43.088-56.242,51.182-7.425,2.53-15.073,4.779-22.441,6.979-10.295,3.034-20.87,6.185-31.165,10.12-33.52,12.766-54.895,33.753-65.364,64.123-6.979,20.027-8.831,37.175-5.9,54.051,2.646,15.073,9.393,29.246,20.027,42.186a614.735,614.735,0,0,1,54.953,77.684,156.859,156.859,0,0,0,15.81,22.945c10.8,12.766,22.664,18.9,36.225,18.9H833.3c19.688-.785,37.408-9.442,55.854-27.336,14.172-13.5,23.061-31.271,31.669-48.487l.679-1.347c12.592-25.145,28.412-46.461,46.917-63.4,18.447-16.7,36.894-33.249,55.457-49.835q15.529-13.93,31.165-27.956c21.035-18.961,42.516-28.179,65.635-28.179,1.745,0,3.538.058,5.4.165,15.859.96,27.161,6.02,35.721,15.917a106.032,106.032,0,0,1,14.909,23.565c2.365,4.9,4.663,9.732,6.921,14.57,7.755,16.537,15.859,33.579,25.93,49.1,11.2,17.1,22.557,28.742,35.779,36.613,11.758,7.038,22.838,10.469,33.976,10.469a55.832,55.832,0,0,0,21.655-4.5,155.1,155.1,0,0,0,19.794-10.072c3.877-2.307,7.706-4.721,11.477-7.144,9.442-5.9,19.232-12.039,29.3-17.041a100.75,100.75,0,0,1,45.288-11.138,96.651,96.651,0,0,1,19.911,2.084c29.245,6.02,49.951,28.46,55.292,60.071,2.026,11.807,2.084,24.69.281,40.606-2.927,26.551-19.348,45.676-44.038,51.192-13.561,3.044-27.617,3.6-41.227,4.11-6.194.223-12.485.5-18.68.96-3.48.223-6.979.281-10.459.281a102.943,102.943,0,0,0-16.537.96c-25.31,3.655-44.1,14.909-57.376,34.257a135.106,135.106,0,0,0-12.883,24.3,9.511,9.511,0,0,1-3.994,5.06h-60.527a3.613,3.613,0,0,1-1.125-2.588,47.973,47.973,0,0,0-.678-7.144,65.835,65.835,0,0,1-.562-7.309c.223-17.555.843-38.135,4.391-58.326,2.249-12.6.058-24.69-6.64-37.01a375.644,375.644,0,0,1-19.3-42.186c-2.365-5.962-4.663-11.981-6.979-17.943-6.407-16.654-13-33.86-21.093-50.067-7.988-16.091-15.519-27.394-24.36-36.613-10.4-11.2-22.664-16.877-36.39-16.877-.785,0-1.57,0-2.365.058-11.923.727-23.623,4.779-34.877,12.1-15.975,10.459-31.388,22.382-46.238,33.918l-9.674,7.542a234.736,234.736,0,0,0-39.6,38.474c-13.61,16.877-22.5,36.9-30.089,55.971-11.933,29.7-29.081,56.979-52.481,83.248-9.112,10.295-18.951,23.177-23.109,40.335a7.638,7.638,0,0,1-2.588,4.449h-68.96l-.223-.281a12.431,12.431,0,0,1-2.927-3.829c-5.341-14.23-14.628-26.318-28.3-36.952l-5.622-4.391c-12.1-9.335-24.525-19.009-35.663-29.982-16.421-16.479-31.494-35.149-46.18-56.979-12.941-19.465-27.171-34.819-43.65-47.024a188,188,0,0,1-23.565-21.6c-14.007-14.628-27-30.661-39.54-46.18-4.052-5-8.1-10.013-12.2-15.015-11.758-14.346-20.192-27.229-26.434-40.442-15.529-32.115-18.951-67.05-20.308-96.974-1.008-20.085,1.406-41.459,7.648-67.109,3.877-16.314,7.648-33.86,7.028-52.142-.843-27.84-8.046-53.208-21.539-75.319-13.271-21.714-33.191-32.677-59.121-32.677-1.289,0-2.588.058-3.877.058-16.76.727-33.753,5.622-50.455,14.569-13.668,7.2-26.1,16.033-40.5,27.113-28.858,22.276-61.477,36.671-99.9,43.989a11.247,11.247,0,0,0-1.8.4,15.713,15.713,0,0,1-3.034.5,3.167,3.167,0,0,1-1.91-.562V359.558a2.942,2.942,0,0,1,2.191-1.008h0a69.031,69.031,0,0,0,8.831-.727c2.191-.281,4.333-.5,6.524-.62a157.358,157.358,0,0,0,35.827-5.845c14.569-4.052,28.3-10.692,41.624-17.1,4.333-2.026,8.608-4.11,12.941-6.078,30.6-14.172,59.451-21.035,88.25-21.035a176.756,176.756,0,0,1,24.36,1.687c25.087,3.373,44.658,16.983,58.22,40.616,11.361,19.688,19.465,43.146,25.649,73.8,3.771,18.563,4.556,35.1,2.414,50.62-1.464,10.692-3.994,21.374-6.407,31.727-.9,3.829-1.8,7.542-2.646,11.361-5.516,24.525-6.747,47.421-3.877,69.862,6.136,46.345,28.3,81,65.868,103.043,9.955,5.855,18.786,8.666,27,8.666,12.66,0,23.74-6.689,33.8-20.415,7.028-9.335,13.048-19.513,18.9-29.362,2.191-3.6,4.333-7.26,6.582-10.915a154.6,154.6,0,0,1,64.52-57.939c11.022-5.457,22.557-10.013,33.753-14.453,6.7-2.646,13.387-5.283,20.027-8.1,31.446-13.726,49.166-36.564,54.11-69.862A294.348,294.348,0,0,0,863.3,439.55a63.184,63.184,0,0,1,2.026-17.778c2.869-11.361,9.558-17.885,20.473-19.746a78.717,78.717,0,0,1,14.23-.96h6.921c19.067-.116,36.613-8.433,49.5-23.4a75.548,75.548,0,0,0,16.935-60.527c-3.936-26.211-13.949-50.678-22.78-72.227-1.629-3.994-3.315-7.929-5-11.816-5.8-13.726-11.817-27.791-16.091-42.468-6.078-21.21-4.333-37.97,5.516-52.7,5.739-8.666,13.222-15.529,20.415-21.714,1.968-1.629,3.877-3.49,5.739-5.283,4.139-4.226,8.075-8.1,13.309-9.791m-.339-2.307c-8.492,2.588-13.668,10.12-20.25,15.578-7.648,6.582-15.015,13.445-20.812,22.16-11.419,17.158-11.3,35.488-5.8,54.614,5.574,18.951,13.726,36.564,21.151,54.507,9.5,23.284,18.844,46.461,22.664,71.713,6.359,42.526-23.963,81.106-64.181,81.281H900a85.277,85.277,0,0,0-14.628.96c-11.923,2.084-19.232,9.228-22.334,21.491a67.417,67.417,0,0,0-2.084,18.34,287.713,287.713,0,0,1-3.034,47.586c-5,33.753-23.623,55.408-52.7,68.059-17.826,7.648-36.283,13.891-53.887,22.615a155.5,155.5,0,0,0-65.47,58.84c-8.269,13.445-15.859,27.394-25.368,40.1-9.9,13.5-20.415,19.465-31.95,19.465-8.1,0-16.654-2.986-25.814-8.327-37.291-21.878-58.782-56.019-64.743-101.356-3.034-23.458-1.289-46.3,3.829-69.125,3.209-14.288,7.086-28.577,9.112-43.253,2.365-17.264.96-34.48-2.472-51.357-5.235-26.1-12.66-51.521-25.872-74.476-13.726-23.846-33.637-38.251-59.906-41.741a175.136,175.136,0,0,0-24.69-1.745c-30.767,0-60.41,7.929-89.21,21.21-17.885,8.21-35.265,17.885-54.226,23.061a154.623,154.623,0,0,1-35.323,5.8c-4.953.165-9.839,1.289-14.851,1.289h-.4c-1.91,0-3.209,1.066-4.5,2.472v61.99a5.674,5.674,0,0,0,4.217,1.8,32.372,32.372,0,0,0,5.283-.96c36.622-6.979,70.54-20.977,100.852-44.377,12.825-9.9,25.872-19.407,40.16-26.938,15.529-8.269,32.173-13.552,49.5-14.23,1.241-.116,2.53-.116,3.771-.116,23.517,0,43.485,9.228,57.153,31.611,13.726,22.5,20.415,47.363,21.21,74.137.62,17.72-2.927,34.645-6.979,51.521-5.4,22.218-8.889,44.775-7.706,67.777,1.522,33.8,5.739,67.215,20.531,97.818,7.086,15.015,16.479,28.46,26.715,40.946,17.041,20.705,33.356,41.964,51.861,61.312a191.071,191.071,0,0,0,23.9,21.878c17.158,12.708,31.107,28.4,43.088,46.461A386.716,386.716,0,0,0,719.5,886.54C732.437,899.306,746.774,910,761,921.078c12.146,9.451,21.878,20.928,27.559,36,.96,2.365,2.695,3.829,4.333,5.574h70.647a9.806,9.806,0,0,0,4.11-6.185c3.771-15.578,12.543-27.956,22.615-39.375,22.053-24.806,40.161-52.258,52.878-83.917,7.813-19.581,16.479-38.929,29.759-55.35a232.573,232.573,0,0,1,39.2-38.135c18.4-14.172,36.4-28.683,55.806-41.343,10.411-6.747,21.656-10.973,33.695-11.7.785-.048,1.512-.048,2.249-.048,13.445,0,25.087,5.739,34.761,16.14,9.955,10.469,17.439,23,23.9,36.06,10.905,21.878,18.951,45.114,28.014,67.836a381.973,381.973,0,0,0,19.407,42.468c6.078,11.08,8.666,22.673,6.407,35.5-3.373,19.348-4.217,39.036-4.382,58.666-.116,4.944,1.125,9.732,1.125,14.511,0,2.133,1.125,3.48,2.482,4.886h62.155a11.558,11.558,0,0,0,5.458-6.466,137.39,137.39,0,0,1,12.708-23.9c13.833-20.25,33.133-29.982,55.8-33.3,8.889-1.415,17.894-.562,26.832-1.183,20.075-1.512,40.277-.679,60.246-5.118,24.864-5.574,42.749-24.971,45.783-53.16,1.57-13.726,2.084-27.559-.223-41.285-5.516-32.512-26.774-55.69-57.153-61.932a97.394,97.394,0,0,0-20.357-2.133c-15.917,0-31.388,3.936-46.345,11.361-14.172,7.086-27.336,16.091-40.839,24.3a155,155,0,0,1-19.571,9.9,52.609,52.609,0,0,1-20.754,4.333c-11.245,0-22.16-3.713-32.793-10.12-14.628-8.724-25.543-21.432-34.984-35.886-12.941-19.911-22.334-41.964-32.735-63.4a107,107,0,0,0-15.3-24.127c-10.13-11.865-23.061-15.859-37.233-16.7-1.91-.116-3.713-.165-5.574-.165-25.707,0-47.75,11.254-67.215,28.8-28.8,25.93-57.822,51.7-86.564,77.791-19.63,17.943-35.207,39.656-47.469,64.065-8.831,17.662-17.6,35.6-31.843,49.214-15.4,14.909-32.852,25.814-54.333,26.667h-1.464c-14.065,0-25.261-7.2-34.48-18.059A159.036,159.036,0,0,1,781.748,839.5a619.7,619.7,0,0,0-55.127-77.965c-9.79-11.865-16.818-25.426-19.571-41.11-3.15-18.224-.116-35.779,5.855-52.937,11.254-32.629,34.422-51.415,64.007-62.717,17.6-6.7,35.828-11.022,53.5-17.041,26.1-9,44.1-27.675,57.541-52.316,6.689-12.321,12.1-25.368,18.447-37.853,10.013-19.688,24.69-34.819,41.343-48.041,18.67-15.074,36.671-30.932,52.539-49.272a526.558,526.558,0,0,0,43.088-57.376c8.666-13.271,16.033-18.447,24.69-18.447,6.7,0,14.123,3.034,23.565,7.929,19.969,10.295,33.579,27.278,43.99,47.644,10.8,20.7,20.705,41.741,28.519,63.958a222.163,222.163,0,0,1,12.146,60.129c1.076,18.34,1.182,36.671,2.084,55.011.562,9.839,1.512,19.8,4.333,29.3,5.458,18.67,18.553,28.518,35.827,31.165a160.738,160.738,0,0,0,24.641,2.084c18,0,35.546-3.771,52.084-13.949,18.331-11.3,32.512-27.229,43.534-46.238,15.529-26.716,24.418-55.8,27.006-87.242,1.687-18.951,2.472-38.193,8.947-56.3,5.235-14.851,12.2-28.354,26.037-36.109a44.09,44.09,0,0,1,13.726-5.622,23.557,23.557,0,0,1,5.176-.562c8.385,0,14.967,4.9,18.68,13.891,4.779,11.642,6.582,24.021,8.656,36.39,4.168,24.525,9.345,48.827,20.705,71.1,8.55,16.7,18.563,32.066,31.049,45.783,14.511,15.859,30.37,29.982,45.9,44.61,15.519,14.676,29.42,30.99,42.749,48.032,16.314,21.035,33.133,41.847,51.919,60.41,10.411,10.236,21.268,20.075,32.231,29.7,1.687,1.357,3.257,3.771,5.622,3.771a4.347,4.347,0,0,0,2.191-.62V618.5c-5-9.228-12.543-15.694-20.531-21.539-15.413-11.477-32.115-20.531-49.156-29.139-21.6-10.857-43.65-20.754-63.9-34.422-27.394-18.563-48.264-42.807-57.376-76.889a119.322,119.322,0,0,1-4.721-31.5c.107-12.379-.339-24.69,2.026-37.01,4.11-21.6,15.636-36.332,34.538-44.716,14.172-6.359,29.139-9.839,43.873-14.172,21.491-6.243,42.642-13.552,62.611-24.583,27.384-15.073,42.128-39.2,46.684-71.1,3.092-22.053-.446-42.865-10.964-62.213-7.2-13.164-18.505-20.754-31.165-26.493-12.825-5.9-26.376-8.831-39.879-12.543-8.433-2.365-16.983-4.721-25.145-8.327-9.112-3.936-15.975-10.692-21.714-18.961a27.611,27.611,0,0,0-5.4-6.02h-46.345c-3.15,2.869-3.044,6.979-3.6,10.915a132.58,132.58,0,0,1-5.962,26.657c-2.821,7.871-7.987,12.485-15.529,14.569-9.558,2.646-19.242,3.654-29.023,4.779-14.85,1.57-29.7,2.869-44.542,4.11-4.9.4-9.791.62-14.628.62-23.9,0-46.578-5.4-66.546-22.334-10.517-8.947-18.059-20.308-24.467-32.793-1.347-2.646-2.7-5.176-5.458-6.524h-48.545c-2.423,2.142-1.58,4.614-.62,7.2,4.837,12.941,10.915,25.2,19.862,35.44,22.838,25.988,49.728,45,82.454,53.664a105.439,105.439,0,0,0,24.525,3.15c1.793.058,3.538.116,5.341.116,6.582,0,13.106-.223,19.688-.223a163.786,163.786,0,0,1,22.334,1.241c10.847,1.57,21.035,4.052,28.577,13.668,2.811,3.654,5.4,7.483,6.466,12.1,6.747,31.388,2.191,68-29.081,89.889-11.477,7.988-23.119,15.636-33.976,24.69-23.962,19.852-38.241,45.957-43.592,77.675-2.423,14.288-3.034,28.683-3.432,43.03-.446,19.465-1.687,38.978-7.987,57.541-6.747,20.192-16.877,38.028-33.414,50.678-10.188,7.823-21.374,12.2-33.356,12.2a52.985,52.985,0,0,1-10.973-1.183c-15.015-3.315-24.864-13.552-30.593-28.073-4.5-11.419-6.126-23.507-6.863-35.721a871.26,871.26,0,0,0-13.164-108c-3.141-17.041-4.44-34.422-5.962-51.8-2.472-27.055-10.236-51.744-27.559-72.673-8.433-10.013-18.108-18.786-27.055-28.354-12.262-13.106-20.192-28.46-24.641-46.345-3.877-15.19-7.028-30.486-11.2-45.618-5.574-20.192-13.28-39.433-20.357-59.063a9.939,9.939,0,0,0-4.5-5.235q-50.7-.058-101.3-.039Z" transform="translate(-239.48 -98.83)" fill="#003ca7"/>
    </g>
    <g id="Group_45" data-name="Group 45" transform="translate(239.446 98.817)">
      <g id="Group_41" data-name="Group 41" transform="translate(0 520.526)">
        <path id="Path_54" data-name="Path 54" d="M244.549,638.107a5.024,5.024,0,0,1,1.289.116c13.552,1.745,24.408,3.432,34.257,5.283,39.715,7.706,72.333,27.394,96.975,58.559a178.558,178.558,0,0,1,17.322,26.153c14.569,27.443,18.9,57.26,21.432,85.381l.165,1.629c1.629,18.117,3.267,36.787,8.433,54.73,5.962,20.87,14.686,35.43,27.452,45.841,9.277,7.542,19.29,14.056,29.023,20.357,3.654,2.365,7.367,4.779,10.973,7.2a122.7,122.7,0,0,1,30.147,29.023c1.687,2.191,2.249,3.267,1.861,4.391H469.711a73.267,73.267,0,0,0-10.072-2.53c-2.307-.446-4.614-.9-6.863-1.512a45.369,45.369,0,0,0-12.379-1.8,42.676,42.676,0,0,0-21.316,5.855c-58.559,0-117.283,0-175.832.058a9.268,9.268,0,0,1-1.522-.116,11.145,11.145,0,0,0,0-1.629c.165-8.269.116-16.537.058-24.806v-9.723a4.594,4.594,0,0,1,3.432-1.241,14.231,14.231,0,0,1,2.7.281,84.4,84.4,0,0,0,13.445.727h8.327l8.385.048c10.295,0,21.316-.165,32.454-1.183,14.288-1.406,30.826-3.315,46.578-8.715,13.329-4.672,21.82-14.511,25.252-29.3,3.713-16.256,4.614-32.454,5.341-50.4.843-16.654,1.522-33.026.5-49.728-1.861-27.394-7.425-48.875-17.5-67.5-14.569-26.716-34.2-44.154-60.129-53.383-14.23-4.953-28.179-5.564-38.813-5.564-6.126,0-12.321.223-18.505.5l-3.548.116c-.679.058-1.347.116-1.968.165a20.305,20.305,0,0,1-2.588.223,4.545,4.545,0,0,1-3.373-1.124V639.115a3.6,3.6,0,0,1,2.763-1.008m0-2.307a5.951,5.951,0,0,0-5.06,2.472V675.4a6.765,6.765,0,0,0,5.68,2.53c1.522,0,3.092-.281,4.672-.4,7.309-.281,14.676-.62,21.937-.62,12.766,0,25.484,1.066,38.028,5.458,26.211,9.277,45.279,27.278,58.888,52.316,11.138,20.531,15.636,42.972,17.216,66.537,1.008,16.537.339,32.91-.5,49.447-.679,16.712-1.522,33.53-5.283,50.009-3.267,14.007-11.022,23.168-23.74,27.617-14.957,5.118-30.486,7.086-46.064,8.608-10.692,1.018-21.432,1.183-32.231,1.183-5.564,0-11.138-.058-16.7-.058a79.6,79.6,0,0,1-13.106-.727,18.891,18.891,0,0,0-3.034-.281,6.687,6.687,0,0,0-5.739,2.695c0,11.758.165,23.565-.058,35.323-.058,3.373.679,4.11,3.829,4.11q88.173-.087,176.452-.058a40.309,40.309,0,0,1,20.7-5.845,42.774,42.774,0,0,1,11.758,1.687c5.739,1.57,11.584,2.133,17.158,4.159H525.2c2.53-3.2.339-5.9-1.289-8.036A124.822,124.822,0,0,0,493.2,941.468c-13.329-8.947-27.22-17.158-39.821-27.452-14.065-11.477-21.714-27.22-26.716-44.658-5.235-18.282-6.8-37.126-8.492-55.971-2.7-30.1-7.483-59.46-21.714-86.234a179.221,179.221,0,0,0-17.545-26.493c-25.872-32.735-59.063-51.8-98.322-59.393-11.419-2.142-22.9-3.829-34.364-5.341a8.02,8.02,0,0,0-1.677-.126Z" transform="translate(-239.447 -635.8)" fill="#003ca7"/>
      </g>
      <g id="Group_42" data-name="Group 42" transform="translate(305.748 0.01)">
        <path id="Path_55" data-name="Path 55" d="M557.448,101.137h21.093c1.8,1.066,2.472,2.986,3.15,6.359,3.432,16.314,9.79,32.57,20.647,52.762,4.953,9.112,10.013,18.224,15.015,27.336,7.987,14.346,16.2,29.2,24.021,43.989,8.947,17.158,19.009,35.1,34.2,49.05,18.166,16.654,36.109,24.806,54.895,24.806,1.687,0,3.373-.058,5.118-.165,17.264-1.241,31.271-8.889,41.741-22.838,13.445-17.778,18-39.036,20.754-57.483,2.084-14.453,3.034-29.246,3.936-43.534l.5-7.425c1.406-21.655,4.556-43.476,7.59-64.569l.562-3.713a7.756,7.756,0,0,1,2.307-4.556H862.99a137.7,137.7,0,0,1-11.138,33.133c-12.146,25.029-20.812,52.084-26.434,82.8l-.9,4.614c-3.713,19.911-7.59,40.442-14.23,59.732-3.6,10.963-7.823,22.382-15.694,31.165-12.66,13.833-28.4,20.589-48.206,20.589a93.7,93.7,0,0,1-14.453-1.124c-34.083-4.953-62.94-23.846-88.2-57.6-11.254-15.074-20.87-31.95-30.089-48.148l-1.183-2.084c-3.373-5.8-6.8-11.642-10.236-17.381-11.2-18.786-22.722-38.251-31.33-59.063-7.542-18.03-11.7-32.541-13.445-46.655M554.86,98.83c1.8,17.545,7.26,33.976,13.891,49.835,11.3,27.22,27.171,51.521,41.682,76.725,9.839,17.216,19.63,34.538,31.446,50.4,23.284,31.165,52.2,53.1,89.714,58.559a103.278,103.278,0,0,0,14.792,1.183c18.447,0,35.721-5.845,49.893-21.432,8.046-8.947,12.379-20.366,16.2-31.892,7.2-20.977,11.08-42.972,15.19-64.743,5.283-28.741,13.62-56.136,26.27-82.182A139.922,139.922,0,0,0,865.752,98.83H812.031a10.657,10.657,0,0,0-3.654,6.524c-3.267,22.722-6.64,45.453-8.152,68.456-1.124,17.041-1.968,33.976-4.44,50.794-2.986,20.366-7.823,39.938-20.308,56.475-10.236,13.61-23.9,20.7-40.044,21.82-1.687.165-3.315.223-4.953.223-20.589,0-37.853-9.955-53.324-24.185-14.628-13.445-24.525-30.826-33.753-48.429-12.66-24.021-26.047-47.469-39.036-71.383-8.831-16.421-16.479-33.414-20.415-52.084-.679-3.373-1.522-6.64-4.837-8.21Z" transform="translate(-554.86 -98.83)" fill="#003ca7"/>
      </g>
      <g id="Group_43" data-name="Group 43" transform="translate(0.032)">
        <path id="Path_56" data-name="Path 56" d="M331.84,101.137h66.992c-2.084,7.765-4.11,15.132-7.26,22.16-11.816,26.376-30.263,48.545-54.846,65.752-14.957,10.518-31.165,15.859-47.983,15.859a85.411,85.411,0,0,1-14.511-1.289l-25.93-4.44-6.524-1.066V121.222a8.9,8.9,0,0,1,5.9-1.8c1.464,0,2.927.223,4.391.339a25.067,25.067,0,0,0,3.432.339l5.739.339c6.582.446,13.445.9,20.134.9,3.771,0,7.2-.116,10.459-.4,14.346-1.289,25.649-6.417,34.6-15.81a21.886,21.886,0,0,1,5.409-3.994m-.562-2.307a23.961,23.961,0,0,0-6.524,4.721c-9.17,9.616-20.473,13.949-33.074,15.074-3.432.281-6.863.4-10.295.4-8.55,0-17.158-.727-25.766-1.183-2.588-.165-5.283-.679-7.929-.679a10.919,10.919,0,0,0-8.21,3.034v79.875c11.419,1.91,22.9,3.829,34.364,5.845a90.379,90.379,0,0,0,14.909,1.241c17.545,0,34.034-5.516,49.331-16.2,23.963-16.877,43.03-38.7,55.573-66.711,3.654-8.152,5.855-16.76,8.21-25.426q-35.348.015-70.589.01Z" transform="translate(-239.48 -98.82)" fill="#003ca7"/>
      </g>
      <g id="Group_44" data-name="Group 44" transform="translate(1267.031 709.696)">
        <path id="Path_57" data-name="Path 57" d="M1717.079,837.076v74.195c-.446.9-.9,1.793-1.241,2.695a12.46,12.46,0,0,1-2.588,4.275c-7.6,6.524-16.15,13.949-25.766,19.571-12.825,7.648-26.89,12.6-40.442,17.381-4.226,1.464-8.433,2.976-12.66,4.556-11.245,4.11-21.258,8.152-29.643,15.975-3.092,2.927-5.9,5.458-9.277,7.038h-46.578c1.231-21.655,13.891-39.375,33.52-46.4,7.542-2.7,15.19-5.176,22.722-7.648,8.21-2.646,16.314-5.283,24.418-8.152,19.232-6.979,35.546-17.264,48.487-30.593,8.094-8.433,14.851-18.059,21.365-27.394l3.877-5.4c1.861-2.7,3.654-5.457,5.457-8.21,2.676-4,5.312-8.114,8.346-11.884m2.307-6.126c-7.144,7.377-12.04,16.547-17.943,24.864-7.988,11.2-15.519,22.664-25.029,32.512-13.552,13.949-29.759,23.565-47.644,30.04-15.636,5.574-31.5,10.295-47.14,15.8-21.374,7.706-34.7,27.394-35.1,50.9h49.5c3.936-1.735,7.086-4.614,10.295-7.648,8.385-7.765,18.621-11.758,28.858-15.519,18.117-6.747,36.564-11.981,53.489-22.111,9.51-5.516,17.72-12.6,26.047-19.8,2.472-2.084,3.034-5.4,4.663-8.094.01-26.948.01-54,.01-80.941Z" transform="translate(-1546.53 -830.95)" fill="#003ca7"/>
      </g>
    </g>
    <path id="Path_58" data-name="Path 58" d="M402.439,101.136h45.5c.5,1.406.116,2.927-.5,5.235l-.281,1.008c-6.185,22.9-18.389,41.847-30.6,58.947q-5.569,7.59-11.3,15.19c-7.765,10.236-15.752,20.87-22.673,32.173-4.217,6.863-9.393,16.2-11.535,27.229-1.968,10.576.562,18.67,7.871,24.748a39.843,39.843,0,0,0,14.065,7.086c13.552,4.052,27.559,5.06,41.062,6.078l7.309.562,3.267.223c11.758,1.008,23.963,2.026,35.6,4.5,30.37,6.417,50.678,22.954,62.1,50.62,11.981,28.683,21.714,61.37,30.767,102.713,5.68,26.211,5.06,51.075-1.8,76.046-3.877,14.288-7.2,27.336-8.433,41-2.588,30.709,3.315,53.605,18.621,72.111,10.518,12.66,23.517,19.571,36.622,19.571,9.9,0,19.688-4.052,28.354-11.642A200.6,200.6,0,0,0,667.374,612.6c12.825-15.132,24.079-26.328,35.323-35.207,12.989-10.072,27.559-18.059,41.624-25.766l3.209-1.8,4.837-2.7c12.2-6.582,24.748-13.387,35.886-22.9,15.19-12.941,22.5-29.643,21.772-49.612-.62-17.5-4.721-35.382-12.989-56.077-8.773-22.053-22.945-35.546-43.427-41.566-11.923-3.432-26.832-7.706-40.616-13.106a249.756,249.756,0,0,1-108.558-81.106c-28.4-36.622-52.927-79.2-79.536-138.037a216.959,216.959,0,0,1-12.825-36.952l-.339-1.241c-.679-2.423-1.008-3.994-.223-5.4h32.735c1.347,1.522,1.861,3.654,2.365,6.078,4.391,22.218,12.6,44.212,25.087,67.109,11.758,21.491,24.408,42.807,36.622,63.444l5.235,8.773c13.106,22.382,25.252,40.277,42.07,54.672,26.832,22.838,51.638,33.414,78.072,33.414h3.771c31.785-1.347,51.58-15.578,62.378-44.881,7.648-20.589,12.1-42.3,15.917-62.717,4.556-24.36,10.4-52.6,22.218-78.3l.9-1.968c6.136-13.552,12.427-27.559,16.091-42.632a4.649,4.649,0,0,1,1.58-2.423,6.15,6.15,0,0,0,.562-.562h111.37c-3.092,2.986-6.126,5.9-9.112,8.831-2.472,2.423-5,4.672-7.59,6.979-5.855,5.176-11.981,10.576-16.76,17.545-8.385,12.039-11.933,23.061-11.245,34.7.679,11.535,3.655,23.846,9.442,38.639,3.713,9.451,7.6,18.844,11.477,28.237,4.614,11.138,9.228,22.276,13.62,33.579,6.863,17.72,13.891,38.871,13.61,61.535-.223,29.866-20.754,58.045-47.7,65.47-6.863,1.968-13.668,2.084-20.928,2.191-3.15.058-6.359.116-9.558.339-18.505,1.347-27.956,5.9-31.5,28.354-1.347,8.1-1.3,16.2-1.241,24.127a162.972,162.972,0,0,1-.679,19.688c-1.464,12.66-3.48,27.278-9.054,40.665-8.21,19.465-22.838,33.3-46.074,43.534-7.2,3.15-14.628,6.078-21.82,8.947-15.355,6.02-31.213,12.321-45.9,21.21-17.662,10.74-31.611,23.342-42.584,38.474-5.9,7.987-11.138,16.7-16.14,25.087-5.845,9.732-11.865,19.8-18.951,28.683-10.178,13.048-18.728,18.34-29.7,18.34a52.483,52.483,0,0,1-16.6-3.15c-16.983-5.574-32.066-17.158-47.469-36.564-24.127-30.544-33.472-68.621-28.577-116.439,1.124-11.138,3.829-22.218,6.417-32.958q1.6-6.412,3.034-12.825c4.556-20.812,5.739-37.01,3.994-52.423-4.217-36.109-13.784-67.05-29.245-94.609-10.236-18.34-24.806-30.709-43.253-36.671a122.685,122.685,0,0,0-38.251-5.739,176.467,176.467,0,0,0-18.389,1.008,226.933,226.933,0,0,0-84.77,26.328c-30.205,16.2-61.089,24.079-94.444,24.079h-.727V200.97a2.656,2.656,0,0,1,1.91-.679,8.618,8.618,0,0,1,1.57.223c3.713.562,7.309,1.289,10.973,2.026,4.11.785,8.269,1.58,12.427,2.249a137.615,137.615,0,0,0,20.647,1.745,74.146,74.146,0,0,0,30.428-6.02c17.5-7.871,33.3-20.027,48.264-37.068,15.975-18.282,26.376-37.408,31.892-58.607a5.354,5.354,0,0,1,2.511-3.7m-.562-2.307a7.921,7.921,0,0,0-4.217,5.4c-5.739,22.16-16.818,41.062-31.388,57.716C352.6,177.473,337.25,190.065,318.8,198.392a71.652,71.652,0,0,1-29.478,5.845,131.163,131.163,0,0,1-20.308-1.745c-7.823-1.241-15.529-2.986-23.342-4.275a11.715,11.715,0,0,0-1.968-.165,4.806,4.806,0,0,0-4.217,2.026V358.588h3.034c33.637,0,65.306-8.1,95.511-24.3a224.34,224.34,0,0,1,83.927-26.047,179.16,179.16,0,0,1,18.166-1.008,120.617,120.617,0,0,1,37.514,5.622c18.282,5.9,32.347,18.282,41.963,35.6,16.2,28.8,25.087,60.294,28.964,93.708,2.026,17.545-.223,34.645-3.936,51.744-3.373,15.248-7.871,30.322-9.509,46.015-4.44,43.369,2.026,83.869,29.081,118.068,13.106,16.537,28.577,30.826,48.545,37.349a54.741,54.741,0,0,0,17.322,3.257c12.485,0,21.539-6.466,31.494-19.184,13.329-16.76,22.441-36.671,35.159-53.887,11.535-15.859,25.766-28.014,41.905-37.853,21.374-12.941,44.939-20.134,67.438-30.04,20.589-9.054,37.853-22.276,47.3-44.716,5.457-13.106,7.59-27.113,9.219-41.285,1.638-14.628-.5-29.246,1.861-43.767,3.257-20.589,10.963-25.087,29.42-26.434,10.353-.679,20.647.339,30.932-2.588,28.121-7.765,49.108-36.564,49.447-67.613.223-22.1-6.078-42.526-13.833-62.436-8.094-20.754-16.935-41.178-25.087-61.874-4.779-12.146-8.55-24.69-9.277-37.912-.727-12.485,3.936-23.284,10.857-33.191,6.64-9.732,15.917-16.314,24.021-24.185,4.382-4.275,8.831-8.55,13.222-12.825H856.089c-1.241,1.57-2.986,2.472-3.373,4.779-3.771,15.529-10.353,29.759-16.818,44.154C824.42,172.713,818.575,199.487,813.5,226.6c-3.994,21.093-8.327,42.128-15.81,62.32-10.178,27.559-28.4,42.07-60.352,43.311-1.241.116-2.414.116-3.654.116-29.42,0-54-13.726-76.55-32.958-17.5-14.967-29.982-34.141-41.624-54-14.114-23.9-28.4-47.809-41.789-72.169-11.361-20.87-20.192-42.807-24.864-66.546-.62-2.927-1.347-5.845-3.655-7.871H510.387c-2.753,3.034-1.347,6.3-.562,9.509a221.659,221.659,0,0,0,12.989,37.349c22.159,49.108,47.14,96.412,79.817,138.541a251.5,251.5,0,0,0,109.518,81.785c13.387,5.235,27.171,9.228,40.839,13.164,20.415,5.962,33.8,19.911,41.905,40.16,7.028,17.72,12.146,36,12.825,55.35.727,19.688-6.524,35.488-20.977,47.809-12.379,10.576-26.493,17.72-40.325,25.31-15.471,8.55-30.99,16.818-45.114,27.791-13.164,10.353-24.748,22.615-35.721,35.546a198.5,198.5,0,0,1-20.647,21.656c-8.608,7.648-17.826,11.08-26.832,11.08-12.66,0-24.971-6.863-34.819-18.728-16.76-20.25-20.308-44.552-18.108-70.482,1.241-13.833,4.721-27.229,8.327-40.616,7.086-25.533,7.483-51.182,1.861-77.112-7.706-35.265-17.1-69.92-30.884-103.1-12.379-29.982-34.6-45.783-63.726-51.977-12.883-2.753-26.047-3.713-39.2-4.779-16.033-1.289-32.173-1.861-47.867-6.524a35.946,35.946,0,0,1-13.271-6.7c-7.144-5.962-8.773-13.5-7.086-22.5,1.91-9.791,6.185-18.224,11.254-26.434,10.178-16.7,22.615-31.611,33.86-47.247,13.106-18.34,24.922-37.349,30.99-59.732.785-3.034,1.968-6.078-.116-9.112-15.771.02-31.688.02-47.44.02Z" transform="translate(-0.002 -0.003)" fill="#c852d5"/>
    <g id="Group_46" data-name="Group 46" transform="translate(1075.394 98.797)">
      <path id="Path_59" data-name="Path 59" d="M1105.077,101.136h47.7c2.249,1.464,3.267,4.11,4.275,7.086l.727,1.851a103.367,103.367,0,0,0,21.539,33.3c2.927,3.034,6.349,6.3,11.022,6.3a12.441,12.441,0,0,0,3.432-.562c5.68-2.084,6.747-7.425,7.59-11.816l.281-1.347c1.289-6.466,1.183-12.941,1.066-19.242-.107-3.209-.107-6.417,0-9.674v-1.124c.116-2.249.223-3.713,1.125-4.779h55.234c2.7,10.072,7.425,20.085,14.395,30.544,10.576,16.2,25.087,29.982,45.511,43.311,19.746,12.941,38.532,20.134,57.483,22.053a196.087,196.087,0,0,0,20.308.9c3.034,0,6.185,0,9.277-.116H1421.4c10.13.223,18.224,1.347,25.31,3.713,13.27,4.275,21.258,13.5,23.846,27.452,1.745,9,2.133,18.389,1.125,30.6-1.57,22.1-10.459,39.259-27.219,52.481-6.466,5.118-13.28,9.955-19.911,14.676q-5.394,3.882-10.8,7.765c-26.551,19.29-43.369,46.064-50.009,79.652-3.034,15.3-3.6,31.049-4.11,46.18-.223,5.341-.446,10.74-.727,16.033-1.406,24.806-6.184,44.154-15.132,60.914-13.891,25.93-30.709,39.821-53.092,43.65a40.177,40.177,0,0,1-6.921.562c-18.844,0-35.6-12.6-41.682-31.446-4.944-15.3-6.184-31.834-7.26-46.345l-.62-9.228c-1.018-14.288-2.026-29.081-4.44-43.427-5.118-31.271-10.8-67.671-14.172-103.615-2.588-27.336-13.445-51.075-32.348-70.7-2.976-3.15-6.068-6.3-9.112-9.451-5.176-5.283-10.295-10.576-15.3-16.033a78.706,78.706,0,0,1-16.091-26.211c-5.176-13.445-8.269-27.733-11.245-41.566-5-23-13-45.056-20.705-66.314q-2.821-8.012-5.709-16.024m-3.257-2.307c9.79,28.014,21.035,55.573,27.443,84.935,3.044,14.172,6.078,28.46,11.3,42.07a80.986,80.986,0,0,0,16.6,27c7.987,8.666,16.372,17.041,24.467,25.533a113.01,113.01,0,0,1,31.669,69.3c3.267,34.819,8.608,69.3,14.172,103.721,2.986,17.322,3.829,34.984,5.06,52.481,1.183,15.81,2.472,31.669,7.319,46.907,6.524,20.027,24.408,33.016,43.931,33.016a46.743,46.743,0,0,0,7.367-.62c25.989-4.44,42.351-21.772,54.672-44.833,10.236-19.067,14.172-39.938,15.413-61.816,1.124-20.7.785-41.459,4.779-61.932,6.582-33.191,22.886-59.17,49.108-78.247,10.237-7.483,20.812-14.569,30.826-22.5,16.983-13.445,26.434-31.213,28.121-54.168.785-10.576.785-20.812-1.183-31.165-2.869-15.3-11.875-24.806-25.484-29.246-8.385-2.695-17.1-3.6-25.989-3.713-2.026-.116-4.052-.116-6.078-.116-6.184,0-12.369.165-18.553.165a198.231,198.231,0,0,1-20.085-.843c-20.531-2.084-39.094-10.353-56.417-21.714-17.322-11.254-33.133-24.748-44.891-42.632-6.407-9.674-11.7-20.027-14.511-31.611h-57.939c-2.646,2.026-2.365,5.118-2.53,8.1-.388,9.558.9,19.067-1.018,28.577-.96,4.5-1.406,9.616-6.349,11.361a8.12,8.12,0,0,1-2.7.5c-3.771,0-6.747-2.811-9.335-5.564a101.853,101.853,0,0,1-21.093-32.512c-1.522-3.936-2.53-8.327-6.524-10.459-17.138.019-34.4.019-51.56.019Z" transform="translate(-1101.82 -98.8)" fill="#c852d5"/>
    </g>
    <g id="Group_47" data-name="Group 47" transform="translate(863.56 683.921)">
      <path id="Path_60" data-name="Path 60" d="M1124.03,704.727a42.029,42.029,0,0,1,26.1,8.773c7.474,5.632,14.056,13,20.812,23.177,13.047,19.969,21.937,42.8,30.486,64.86l2.133,5.564.785,2.084c7.755,19.794,15.752,40.277,26.1,59.228a50.928,50.928,0,0,1,5.845,34.6c-3.034,18.059-4.5,37.747-4.381,60.187.107,2.588.33,5.06.562,7.648a74.1,74.1,0,0,1,.562,7.987h-66.595c-2.482-1.8-3.994-4.5-5.632-7.425-.62-1.076-1.241-2.191-1.91-3.209-6.689-10.741-13.387-21.539-17.545-33.414-11.022-31.776-14.686-66.934-11.3-107.318l.446-5.516c.96-10.576,1.861-21.549.058-32.512-2.472-16.2-14.4-27.113-29.585-27.113a36.932,36.932,0,0,0-4.382.281c-16.712,2.307-33.414,8.773-52.481,20.357a122.376,122.376,0,0,0-27.675,23.507c-12.825,14.909-22.557,33.414-28.858,54.953-11.7,40.277-20.589,76.385-27.113,110.419l-.165.96c-.562,3.092-.96,4.944-2.763,6.02H886.15c2.588-11.3,6.466-20.531,11.817-28.237,6.3-9.005,13.387-17.439,19.465-24.525,12.65-14.792,22.673-29.081,30.486-43.708,6.243-11.361,11.477-23.458,16.6-35.159,3.315-7.648,6.747-15.578,10.459-23.226,9.112-18.786,21.82-35.546,39.094-51.3,21.714-19.746,45.841-37.233,68.679-53.208,9.451-6.7,18.67-10.973,28.073-13.106a59.052,59.052,0,0,1,13.212-1.628m0-2.307a61.244,61.244,0,0,0-13.726,1.687c-10.566,2.365-19.959,7.144-28.848,13.445-23.682,16.586-47.3,33.743-68.9,53.431-16.091,14.628-29.817,31.553-39.656,51.967-9.335,19.407-16.818,39.6-27,58.326a242.5,242.5,0,0,1-30.215,43.253c-6.863,7.987-13.552,16.091-19.629,24.748-6.64,9.558-10.4,20.415-12.766,31.834h74.815c3.6-1.735,3.936-5.341,4.6-8.831,7.144-37.349,16.547-73.972,27.113-110.245,5.855-20.134,14.967-38.474,28.354-54.051a119.051,119.051,0,0,1,27.113-23.061c16.091-9.732,32.91-17.439,51.58-20.027a35.439,35.439,0,0,1,4.11-.281c13.843,0,24.971,9.839,27.336,25.2,2.026,12.543.456,25.029-.562,37.466-3.092,37.01-.678,73.293,11.419,108.277,4.275,12.2,11.08,23.119,17.836,33.86,2.588,4.052,4.391,8.947,8.724,11.7h69.581c.329-6.068-.9-12.039-1.018-17.943-.116-19.969.96-40.044,4.333-59.79a53.56,53.56,0,0,0-6.136-36.109c-10.576-19.465-18.67-40.277-26.774-61.031-9.5-24.408-18.563-48.991-32.851-70.879-6.02-9.112-12.825-17.322-21.374-23.74a44.335,44.335,0,0,0-27.462-9.209Z" transform="translate(-883.29 -702.42)" fill="#c852d5"/>
    </g>
    <path id="Path_61" data-name="Path 61" d="M1714.358,98.71v2.307a5.022,5.022,0,0,1,1.745.165,8.245,8.245,0,0,1,.223,2.588q-.174,95.341-.058,190.905v70.87a1.221,1.221,0,0,1-.785.223,9.21,9.21,0,0,1-2.423-.562l-.678-.223c-3.092-1.008-6.126-2.142-9.17-3.267-4.5-1.687-9.17-3.432-13.949-4.721A154.6,154.6,0,0,0,1650,351.819a156.563,156.563,0,0,0-61.418,12.941c-26.774,11.419-40.384,33.753-39.375,64.685.9,25.31,11.477,46.345,31.446,62.553,18.9,15.19,41.905,22.615,70.249,22.615,5.283,0,10.692-.223,16.489-.679,11.642-.96,23.109-3.771,34.2-6.466,3.538-.843,7.037-1.745,10.634-2.53l.62-.116a9.8,9.8,0,0,1,2.307-.446,1.928,1.928,0,0,1,1.125.339v109.46a49.517,49.517,0,0,1-5.118-5.235,53.885,53.885,0,0,0-5.341-5.516c-11.022-9.277-23.846-17.778-39.259-26.047-9.451-5-19.009-9.839-28.46-14.686-13.222-6.8-26.89-13.784-40.161-20.928a147.286,147.286,0,0,1-53.945-48.206c-19.009-28.354-25.368-62.32-19.465-103.944,3.257-23.458,15.578-39.152,37.63-48.09,11.245-4.556,23.168-7.929,34.655-11.08,3.373-.96,6.747-1.91,10.072-2.869,26.376-7.648,45.725-15.578,62.824-25.814,11.477-6.863,19.465-14.007,25.087-22.5,17.6-26.328,22.731-55.35,15.306-86.176-5.516-22.615-18-38.357-37.185-46.907a172.213,172.213,0,0,0-25.262-9.112c-3.315-.9-6.64-1.687-9.955-2.53-11.3-2.869-22.945-5.8-33.578-10.973-11.022-5.4-18.331-12.825-22.392-22.441h30.6l33.976.058q33.923,0,67.836-.165l.213-2.307m0,0h-.223c-22.615.116-45.23.116-67.836.116h-67.942c4.381,13.048,13.61,21.316,24.748,26.89,13.949,6.747,29.139,9.616,43.931,13.61a172.92,172.92,0,0,1,24.922,8.947c19.348,8.608,30.709,24.185,35.886,45.4,7.425,30.6,2.084,58.84-14.967,84.315-6.184,9.335-14.957,16.2-24.35,21.878-19.63,11.7-40.781,19.232-62.272,25.533-15.073,4.333-30.312,8.1-45,14.007-21.82,8.831-35.546,24.922-39.036,49.893-5.341,37.689-1.57,73.691,19.862,105.631a149.6,149.6,0,0,0,54.73,48.885c22.78,12.262,45.841,23.623,68.621,35.6a224.727,224.727,0,0,1,38.871,25.766c4.944,4.217,8.327,10.295,14.288,13.271V503.708a4.226,4.226,0,0,0-3.432-1.629,20.031,20.031,0,0,0-3.49.62c-14.744,3.373-29.362,7.706-44.435,8.947-5.516.446-10.905.727-16.314.727-24.525,0-48.041-5.4-68.786-22.16-18.786-15.19-29.7-35.44-30.544-60.866-.96-28.46,10.576-50.794,37.911-62.436a152.938,152.938,0,0,1,60.527-12.766,149,149,0,0,1,38.7,5.118c7.813,2.142,15.3,5.4,22.945,7.871a12.481,12.481,0,0,0,3.829.96,3.909,3.909,0,0,0,3.092-1.522q0-131.459.058-262.793c-.019-3.829-.523-5.07-4.294-5.07Z" transform="translate(-39.242)" fill="#c852d5"/>
    <path id="Path_62" data-name="Path 62" d="M269.017,677.687c3.994,0,7.987.058,11.981.116a88.39,88.39,0,0,1,44.271,12.146C362.056,711.828,381.86,746.87,385.8,797.16a308.944,308.944,0,0,1,.281,46.122c-.4,5.341-.679,10.692-.9,16.091-.562,10.411-1.066,21.268-2.646,31.785-1.745,11.7-4.052,22.838-13.048,31.049-6.524,6.194-14.288,8.666-21.655,10.411-18.9,4.721-39.036,7.038-61.535,7.086l-8.715.058H268.91c-8.1,0-17.6-.107-27.113-.9V902.355c.843-.843,2.026-1.183,3.829-1.183h2.191c7.2,0,14.453-.388,21.432-.785l3.829-.223c16.314-.9,28.635-3.373,39.938-7.987,17.545-6.979,30.322-19.969,37.853-38.7,6.979-17.322,10.178-37.185,9.791-60.75-.4-17.322-3.936-32.066-10.857-45.172-14.395-27.336-36.109-41.227-64.462-41.343h-.727c-9.839,0-19.523,1.745-28.916,3.373-3.092.562-6.185,1.124-9.277,1.629-.96.058-1.629.174-2.307.174a2.959,2.959,0,0,1-2.307-.785V678.715c8.026-.688,16.75-1.028,27.21-1.028m0-2.307c-9.839,0-19.688.281-29.527,1.241V711.44a5.3,5.3,0,0,0,4.614,2.249,21.185,21.185,0,0,0,2.646-.223c12.6-1.968,25.029-4.944,37.853-4.944h.727c28.519.107,48.768,14.23,62.436,40.1,7.2,13.61,10.236,28.4,10.576,44.154.339,20.647-1.968,40.829-9.616,59.848-7.2,17.836-19.465,30.6-36.622,37.408-12.6,5.176-25.707,7.086-39.152,7.823-8.433.446-16.76,1.018-25.145,1.018h-2.191c-2.365,0-4.556.5-6.126,2.646v39.424c9.839.96,19.629,1.124,29.42,1.124,5.8,0,11.584-.058,17.381-.058,20.928-.058,41.741-2.084,62.1-7.144,8.21-1.968,16.033-4.73,22.673-10.973,9.558-8.714,11.981-20.415,13.784-32.4,2.307-15.975,2.365-32,3.548-48.041A312.252,312.252,0,0,0,388.112,797c-3.713-47.14-21.714-85.274-61.651-109.014a90.734,90.734,0,0,0-45.4-12.485c-4-.058-8.055-.116-12.049-.116Z" transform="translate(-0.002 -17.67)" fill="#c852d5"/>
    <path id="Path_63" data-name="Path 63" d="M1718.644,919.849V934.2c0,16.479-.058,32.968.058,49.272a4.49,4.49,0,0,1-.175,1.851c0-.058,0-.058-.107-.058-.175,0-.678.058-1.58.058h-114.4a57.779,57.779,0,0,1,13.164-11.642c7.319-4.556,15.3-7.532,23.119-10.4l3.655-1.406c3.713-1.357,7.425-2.646,11.138-3.936,8.327-2.927,16.983-5.9,25.261-9.9,13.319-6.31,26.144-15.364,39.87-28.189m2.307-5.4c-13,12.708-26.938,23.856-43.195,31.5-11.758,5.68-24.127,9.277-36.167,13.775-9.229,3.49-18.563,6.64-27.229,11.991-6.64,4.1-11.923,9.732-16.76,15.917h119.25c3.151,0,4.227-.446,4.168-4.159-.175-22.906-.068-46.025-.068-69.028Z" transform="translate(-41.618 -24.996)"/>
    <g id="Group_48" data-name="Group 48" transform="translate(419.711 953.965)">
      <path id="Path_64" data-name="Path 64" d="M446.387,981v2.307a48.592,48.592,0,0,1,19.465,4.052H430.189a10.912,10.912,0,0,1,5.235-2.927,57.527,57.527,0,0,1,10.973-1.124V981m-.01,0a57.189,57.189,0,0,0-11.419,1.183c-3.936.785-7.2,3.771-9.558,7.483h49.612A52.191,52.191,0,0,0,446.387,981Z" transform="translate(-425.41 -981)" fill="#c852d5"/>
    </g>
    <path id="Path_65" data-name="Path 65" d="M1441.587,787.89V790.2c15.073,0,26.376,6.185,34.538,18.786,9.228,14.172,10.13,44.154-12.04,61.428-11.7,9-25.261,10.682-38.134,11.138-17.885-.562-32.008-3.829-44.154-10.178-5.8-3.15-11.08-6.582-12.2-13.164-1.3-8.327.107-15.694,4.11-21.937a181.1,181.1,0,0,1,10.8-14.851c15.461-18.728,31.446-28.518,50.116-30.767a59.6,59.6,0,0,1,6.979-.446V787.89m-.01,0a67.959,67.959,0,0,0-7.319.446c-21.316,2.588-37.689,14.792-51.521,31.62a182.654,182.654,0,0,0-11.022,15.073c-4.614,7.2-5.68,15.413-4.391,23.565,1.241,7.706,7.542,11.584,13.387,14.792,14.288,7.483,29.7,9.955,45.337,10.459,14.056-.5,27.559-2.472,39.366-11.642,23.061-17.836,22.508-49.214,12.66-64.462-9.16-14.162-21.762-19.852-36.5-19.852Z" transform="translate(-34.547 -21.118)" fill="#f5276d"/>
    <path id="Path_66" data-name="Path 66" d="M1082.407,330.859a23.838,23.838,0,0,1,8.094,1.464c20.357,6.747,36,18,47.7,34.422,10.236,14.288,17.894,30.6,25.262,46.345l3.209,6.863c17.545,37.068,25.872,74.641,25.533,114.859a326.7,326.7,0,0,0,3.092,50.058c3.432,23.061,14.686,36,35.265,40.723a119.661,119.661,0,0,0,25.543,2.811,113.821,113.821,0,0,0,29.3-3.829c30.089-8.269,53.15-28.916,72.615-65.025,17.206-32.173,21.82-67.5,24.185-97.876,1.522-20.7,5.516-36.845,12.66-50.852,7.367-14.395,18.049-23.517,32.454-27.792a26.051,26.051,0,0,1,7.2-1.124c10.8,0,16.314,8.433,19.125,15.471,4.614,11.865,6.747,24.748,8.714,37.185.5,3.267,1.076,6.524,1.638,9.79,5.845,34.422,18.447,64.908,37.514,90.557,13.891,18.563,30.884,34.2,47.3,49.389l7.871,7.26a437.66,437.66,0,0,1,40.5,44.212q4.711,5.9,9.442,11.816c9.005,11.254,18.224,22.838,27.782,33.976,18.282,21.093,39.094,39.54,57.26,55.185v78.247a31.3,31.3,0,0,0-1.852,4.333,20.922,20.922,0,0,1-2.588,5.4l-5.68,8.094c-4.779,6.7-9.558,13.4-14.114,20.25-16.6,24.583-38.251,41.4-66.207,51.3-6.979,2.482-14.172,4.73-21.151,6.921-6.64,2.026-13.164,4.052-19.63,6.291-21.995,7.706-34.48,21.937-38.134,43.65-.4,2.365-.785,4.614-2.142,6.136h-44.833a9.672,9.672,0,0,1-3.829-4.5c-4.391-9.568-11.361-16.256-20.812-19.911a121.466,121.466,0,0,0-42.3-7.929,109.837,109.837,0,0,0-30.593,4.381c-15.471,4.391-26.434,12.437-33.637,24.467a10.217,10.217,0,0,1-3.267,2.927c-.281.223-.562.4-.785.562h-44.212c.339-.843.678-1.628,1.018-2.472,1.852-4.333,3.771-8.831,5.845-13.106,11.245-22.9,28.751-37.689,51.977-43.989,13-3.6,26.492-3.654,39.54-3.771,5.574,0,11.419-.058,17.041-.339l6.747-.446c12.2-.785,24.748-1.57,37.01-4.556,21.258-5.235,35.091-18.447,41.169-39.375,3.655-12.941,4.837-27.171,3.713-43.65-1.125-14.288-3.936-25.368-9.063-34.877-14.453-26.493-37.514-39.317-70.7-39.317a98.963,98.963,0,0,0-49.728,14.065c-6.407,3.713-12.825,7.59-19.242,11.419-9,5.4-18.389,11.08-27.724,16.314-9.839,5.516-19.8,8.327-29.643,8.327-11.361,0-23-3.829-34.538-11.245-12.485-8.036-23.109-19.242-33.52-35.207-10.8-16.314-19.184-34.538-27.336-52.084l-4.275-9.17a132.978,132.978,0,0,0-10.072-18.282c-8.947-12.989-19.465-20.473-32.008-22.9a88.833,88.833,0,0,0-16.6-1.58c-16.091,0-31.892,4.614-46.965,13.668-14.288,8.608-26.667,20.134-38.59,31.271l-3.432,3.209c-14.792,13.891-30.263,27.443-45.23,40.606l-4.663,4.052c-14.686,12.989-31.5,28.848-45.172,48.478-7.59,10.915-13.891,22.9-19.969,34.422-3.654,6.979-7.425,14.114-11.419,20.987-14.172,24.021-33.074,39.6-57.774,47.7a44.479,44.479,0,0,1-14.23,2.365c-14.347,0-28.015-7.2-37.408-19.746a357.336,357.336,0,0,1-20.308-30.486c-10.973-17.72-24.36-38.416-40.723-57.706a178.36,178.36,0,0,1-17.1-23.061c-10.692-17.836-14.453-36.787-11.361-58.045,3.373-24.127,12.2-43.766,27-60.023,13.222-14.511,30.486-22.441,44.1-27.792,9.955-3.877,20.366-6.979,30.428-9.955,7.881-2.307,16.033-4.721,23.962-7.483,19.348-6.8,35.265-19.8,48.652-39.821,6.979-10.4,12.321-21.878,17.555-33.016,1.793-3.877,3.6-7.765,5.458-11.584A135.922,135.922,0,0,1,940.542,476.1c8.782-9.558,18.844-17.778,28.518-25.814,6.349-5.235,12.941-10.576,19.125-16.314a387.579,387.579,0,0,0,36.894-39.482c9.9-11.981,18.951-25.029,27.675-37.747,3.034-4.391,6.078-8.715,9.112-13.048,6.088-8.608,12.776-12.835,20.541-12.835m0-2.249c-8.55,0-15.917,4.556-22.392,13.726-12.04,17.1-23.4,34.7-36.622,50.678a391.1,391.1,0,0,1-36.729,39.259c-15.636,14.453-33.191,26.376-47.76,42.245A139.072,139.072,0,0,0,916.3,508.154c-7.319,14.957-13.62,30.6-22.838,44.319-12.156,18.166-27.394,31.892-47.528,38.92-18.059,6.359-36.622,10.518-54.449,17.5-16.654,6.524-32.512,14.734-44.939,28.354-15.578,17.158-24.3,37.747-27.617,61.254-3.092,21.539.727,41.343,11.7,59.567a177.972,177.972,0,0,0,17.322,23.342c15.132,17.885,28.073,37.349,40.5,57.425a364.262,364.262,0,0,0,20.415,30.709c9.9,13.164,24.185,20.589,39.259,20.589a47.887,47.887,0,0,0,14.957-2.423c25.368-8.327,44.833-24.69,59.015-48.71,10.682-18.282,19.232-37.912,31.271-55.292,12.825-18.389,28.46-33.579,44.891-48.041,16.76-14.734,33.53-29.42,49.893-44.716,13.222-12.262,26.27-24.922,41.566-34.2,14.569-8.715,29.818-13.329,45.841-13.329a88.627,88.627,0,0,1,16.15,1.522c13.28,2.588,22.838,10.8,30.544,21.937a134.245,134.245,0,0,1,9.955,17.943c9.791,20.987,19.009,42.3,31.669,61.535,9.335,14.288,20.134,26.774,34.257,35.886,11.816,7.706,23.74,11.642,35.779,11.642,10.236,0,20.473-2.821,30.767-8.608,15.859-8.947,31.271-18.621,46.965-27.791a97.857,97.857,0,0,1,48.381-13.726h.223c28.8,0,53.324,9.9,68.679,38.086,5.622,10.518,7.871,22.111,8.714,33.976,1.076,14.346.456,28.8-3.6,42.865-6.01,20.919-19.688,32.91-39.482,37.737-14.172,3.49-28.683,3.936-43.311,4.953-19.009,1.018-38.241-1.018-57.037,4.159-24.3,6.582-41.964,21.772-53.431,45.23-3.044,6.185-5.632,12.592-8.385,18.9h48.487c1.852-1.406,3.936-2.423,5.283-4.614,7.59-12.708,19.125-19.688,32.338-23.458a108.311,108.311,0,0,1,29.924-4.275,119.45,119.45,0,0,1,41.508,7.765,34.479,34.479,0,0,1,19.465,18.67,12.173,12.173,0,0,0,5.341,5.9h46.4c2.423-2.026,2.927-5.06,3.49-8.036,3.713-22.334,17.041-35.042,36.564-41.847,13.494-4.663,27.278-8.433,40.829-13.222a132.833,132.833,0,0,0,67.332-52.2c6.407-9.558,13.106-18.844,19.746-28.3,2.365-3.267,3.034-7.2,4.886-10.527V735.653c-20.192-17.381-40.161-35.207-57.764-55.631-12.825-14.909-24.864-30.37-37.233-45.734a435.527,435.527,0,0,0-40.723-44.435c-19.184-17.826-38.978-35.042-54.895-56.358-19.581-26.376-31.5-56.417-37.126-89.549-2.811-15.917-4.5-32.231-10.459-47.421-4.275-10.857-11.642-16.877-21.268-16.877a27.048,27.048,0,0,0-7.871,1.183c-15.015,4.44-26.212,14.114-33.86,28.964-8.21,16.2-11.584,33.637-12.941,51.7-2.53,33.8-7.755,66.828-23.846,96.916-16.431,30.6-37.911,54.788-71.219,63.9a110.367,110.367,0,0,1-28.683,3.771,115.7,115.7,0,0,1-25.087-2.753c-20.134-4.614-30.147-17.041-33.4-38.813a320.072,320.072,0,0,1-3.1-49.67c.4-41-8.492-79.478-25.7-115.925-8.724-18.34-16.877-37.01-28.693-53.547-12.592-17.6-29.245-28.8-48.817-35.323a29.843,29.843,0,0,0-8.9-1.435Z" transform="translate(-14.662 -7.045)" fill="#f5276d"/>
    <path id="Path_67" data-name="Path 67" d="M442.376,342.819a91.234,91.234,0,0,1,11.7.785c16.372,2.026,29.527,9,39.036,20.7,17.322,20.928,26.657,47.14,28.683,79.982,1.289,20.027-2.53,38.92-6.863,56.475-6.02,24.806-8.55,45.783-7.823,66.033A374.406,374.406,0,0,0,511.385,611c5.341,34.315,17.1,62.553,36,86.283,11.022,14,22.276,27.9,33.472,41.682,13.5,16.76,28.237,34.373,46.578,48.545,18.844,14.628,33.52,30.089,44.939,47.353a396.657,396.657,0,0,0,32.512,43.03c15.81,18.166,34.48,32.968,52.481,47.3l7.483,5.962c12.708,10.188,20.928,22.16,25.087,36.564H728.123a12.906,12.906,0,0,0-.96-2.026c-11.477-20.977-27.394-37.8-42.807-52.82-18.34-17.72-39.433-31.553-64.462-42.351-25.145-10.857-43.03-29.924-53.1-56.475l-3.432-9.219c-5.341-14.065-10.857-28.635-16.7-42.807-6.863-16.431-16.372-31.388-25.591-45.841-2.026-3.209-4.052-6.407-6.02-9.616a135.52,135.52,0,0,1-18.728-46.4c-5.739-30.37-7.871-60.973-9.839-94.949a286.819,286.819,0,0,1,7.871-83.869c6.417-26.715,6.02-49.108-1.183-70.366-9.054-26.328-27.675-41.4-51.075-41.4a63.044,63.044,0,0,0-20.754,3.713c-20.366,7.309-36.448,20.928-52.423,35.382-22.218,19.969-40.616,33.414-59.732,43.708-8.269,4.391-16.654,8.666-25.029,12.941-14.007,7.144-28.46,14.511-42.351,22.664V429.829l.058-.058,3.829-.785c36-7.144,62.32-17.041,85.216-32.066,7.483-4.837,14.734-10.12,21.82-15.3,9.558-6.979,19.513-14.172,29.808-20.366,21.084-12.369,40.655-18.437,59.838-18.437m0-2.249c-21.772,0-41.905,7.483-61.031,18.786-18,10.692-34.2,24.185-51.7,35.663-26.047,17.041-54.788,25.872-84.431,31.727-1.851.4-3.829.785-5.739,1.241v64.065c23-13.784,47.246-25.029,70.763-37.63,21.937-11.816,41.459-27.229,60.187-43.989,15.636-14.172,31.727-27.792,51.7-34.984a61.928,61.928,0,0,1,19.969-3.6c22.1,0,40.16,14.346,48.885,39.879,7.823,23.119,6.64,46.064,1.124,69.135a287.12,287.12,0,0,0-7.929,84.489c1.861,31.892,3.936,63.9,9.9,95.288a137.491,137.491,0,0,0,19.009,47.2c11.2,17.943,23.177,35.323,31.446,55.118,7.086,17.158,13.552,34.6,20.134,51.919,10.411,27.5,28.635,46.684,54.333,57.822,23.458,10.13,44.775,23.565,63.726,41.847,16.14,15.694,31.388,32.115,42.468,52.365a21.08,21.08,0,0,1,1.289,3.15h66.43C788.747,953.02,779.3,939.8,766.3,929.4c-20.754-16.6-41.905-32.512-59.683-52.995a399.169,399.169,0,0,1-32.347-42.8c-12.543-18.951-27.956-34.315-45.453-47.867-17.545-13.61-32.008-30.593-46.18-48.206-11.2-13.775-22.441-27.675-33.472-41.624-19.63-24.7-30.6-53.5-35.546-85.216A384.2,384.2,0,0,1,509.4,566.7c-.785-22.276,2.53-43.99,7.765-65.364,4.614-18.786,8.152-37.63,6.921-57.153-1.851-30.263-10.178-58.278-29.2-81.339-10.518-12.883-24.525-19.523-40.558-21.539a94.274,94.274,0,0,0-11.952-.737Z" transform="translate(-0.002 -7.411)" fill="#c852d5"/>
    <path id="Path_68" data-name="Path 68" d="M241.787,585.973a4.873,4.873,0,0,1,.9.446c20.589,13.048,42.3,24.3,63.338,35.207,5.176,2.695,10.353,5.341,15.529,8.046,20.977,10.973,38.474,23.507,53.489,38.251l1.124,1.124c15.3,15.132,31.165,30.826,43.311,49.612,12.941,19.911,17.545,43.311,21.21,65.529.679,4.217,1.289,8.492,1.91,12.766,2.588,17.216,5.235,34.994,11.419,51.754,6.524,18.049,14.453,30.99,24.971,40.781,10.12,9.5,21.6,16.76,32.677,23.846,3.092,1.968,6.185,3.877,9.277,5.913,23,15.19,35.886,33.016,40.442,55.913H526.623c-.058-.116-.116-.281-.165-.4a21.419,21.419,0,0,0-2.084-4.052c-9.393-13.61-21.772-24.748-40.1-36.273l-3.315-2.084c-11.08-6.979-22.441-14.172-32.066-23.4-12.883-12.66-21.093-30.157-25.766-55.069-2.53-13.387-3.877-27.336-5.235-40.839-.96-9.393-1.91-19.067-3.209-28.518-6.979-49.214-30.6-88.929-70.308-117.951-31.785-23.119-69.464-28.742-102.6-32.008V585.973m-2.3-3.383v54.051c36.448,3.49,72.508,9.228,103.556,31.785,38.416,28.131,62.32,66.653,69.358,116.439,3.267,23,4.159,46.578,8.492,69.464,3.994,21.268,11.022,41.178,26.434,56.252C458,920.935,470.6,928.525,483.041,936.4c15.073,9.451,28.916,20.415,39.433,35.6a40.851,40.851,0,0,1,2.7,5.458h38.978c-4.614-27.617-20.473-45.948-41.963-60.129-14.23-9.335-28.916-17.6-41.624-29.527-11.7-10.857-18.951-24.806-24.408-39.879-7.59-20.647-9.732-42.526-13.222-64.123-3.829-23.4-8.492-46.3-21.539-66.372-12.543-19.465-28.635-35.217-44.716-51.134-16.2-15.917-34.48-28.4-54.051-38.639-26.493-13.891-53.266-27.055-78.692-43.146a27.218,27.218,0,0,0-4.459-1.919Z" transform="translate(-0.002 -14.827)" fill="#f5276d"/>
    <path id="Path_69" data-name="Path 69" d="M582.739,101.137H606.3a110.744,110.744,0,0,0,12.2,34.48c12.66,23.681,24.864,48.148,36.622,71.888,3.936,7.929,7.929,15.859,11.865,23.846,8.55,16.983,18.844,29.2,31.446,37.185,8.666,5.4,18,8.269,27.055,8.269,14.686,0,27.617-7.367,36.448-20.7,10.915-16.421,13.222-35.1,14.114-52.762.562-11.584-.165-23.284-.9-34.538-.62-8.947-1.183-18.166-1.124-27.171v-40.5h36.109c-.679,5-1.464,10.072-2.191,15.074-1.687,11.642-3.49,23.74-4.721,35.663-1.124,11.2-1.968,22.615-2.811,33.637-.785,10.576-1.57,21.151-2.646,31.727-2.142,21.258-6.466,37.747-13.552,51.8-10.857,22.053-29.924,34.7-52.258,34.7a64.976,64.976,0,0,1-23.846-4.672c-19.8-7.871-36.283-22.441-50.339-44.494-7.2-11.254-13.61-23.342-19.852-35.042-2.133-4.052-4.275-8.1-6.466-12.039q-6.587-12.156-13.329-24.021c-5.118-9.228-10.295-18.389-15.3-27.733a213.771,213.771,0,0,1-20.095-54.6M579.87,98.83A217.038,217.038,0,0,0,600.8,156.875c9.393,17.322,19.184,34.422,28.635,51.7,8.608,15.81,16.7,32.115,26.376,47.246,13.106,20.473,29.478,36.622,51.463,45.4a67.345,67.345,0,0,0,24.69,4.837c21.82,0,42.351-11.7,54.332-36,8.269-16.421,11.923-34.315,13.784-52.6,2.142-21.772,3.267-43.592,5.458-65.364,1.861-17.778,4.837-35.488,7.26-53.266H771.735v42.749c-.165,20.531,3.034,41.062,2.026,61.651-.9,18.224-3.432,36.109-13.726,51.638-8.831,13.329-21.374,19.571-34.538,19.571a48.968,48.968,0,0,1-25.814-7.871c-13.726-8.666-23.284-21.655-30.6-36.283-16.033-32.008-31.669-64.181-48.545-95.792A107.292,107.292,0,0,1,608.272,98.82c-9.451.01-18.893.01-28.4.01Z" transform="translate(-10.432 -0.003)" fill="#f5276d"/>
    <path id="Path_70" data-name="Path 70" d="M1319.422,101.137h42.419a15.922,15.922,0,0,1,5.845,5.341c3.044,4.275,7.086,7.765,12.941,11.138a75.047,75.047,0,0,0,37.466,10.353c14.288,0,29.023-4.159,44.939-12.766a40.889,40.889,0,0,0,9.616-7.823,43.788,43.788,0,0,1,7.309-6.243h43.427a116.966,116.966,0,0,1-2.7,19.969c-5.283,25.766-8.327,28.8-32.852,32.958-11.138,1.851-22.615,2.811-33.695,3.713-3.315.339-6.689.562-10.072.9l-2.927.223c-9.732.9-19.794,1.861-29.7,1.861a121.853,121.853,0,0,1-18.117-1.241c-34.625-5.118-59.49-24.748-73.894-58.384M1316,98.83c14.511,36.448,40.219,57.541,77.006,63a127.3,127.3,0,0,0,18.447,1.241c10.964,0,21.878-1.124,32.852-2.142,14.628-1.289,29.362-2.142,43.873-4.556,25.6-4.333,29.3-8.046,34.761-34.819a108.936,108.936,0,0,0,2.821-22.722h-46.4c-6.524,3.829-10.634,10.74-17.381,14.346C1447.406,121,1432.846,125.6,1418.1,125.6c-12.04,0-24.069-3.034-36.283-9.955-4.721-2.753-9-5.9-12.2-10.518a18.787,18.787,0,0,0-7.2-6.3Z" transform="translate(-32.989 -0.004)"/>
    <path id="Path_71" data-name="Path 71" d="M243.249,101.017c14.628.116,29.246.165,43.931.165l22.053-.058h17.72c-11.865,16.14-29.478,18.505-45.4,18.563h-.9c-6.7,0-13.5-.446-20.134-.9-6.126-.4-12.427-.843-18.728-.9,0-.96.058-1.968.058-2.986.058-4.11.058-8.21-.116-12.262a3.761,3.761,0,0,1,.116-1.57h.058c.155.01.553-.048,1.338-.048m0-2.307c-3.15,0-3.936.727-3.829,4.052.281,5.8.058,11.642.058,17.439h.62c13.552,0,27,1.8,40.558,1.8h.9c19.348-.058,37.912-3.829,49.728-23.177h-44.1c-14.637,0-29.313,0-43.941-.116Z"/>
    <path id="Path_72" data-name="Path 72" d="M1570.083,170.84v2.307c15.519,0,30.37,3.315,41.624,6.185a65.552,65.552,0,0,1,24.079,11.584c11.361,9,18,20.87,19.125,34.422,1.357,16.314-5.341,33.637-18.224,47.586-8.715,9.558-20.473,16.314-36.952,21.374-11.08,3.49-20.473,5.739-30.089,5.739a52.453,52.453,0,0,1-11.254-1.124c-17.381-3.936-22.218-8.608-27.113-26.551a90.022,90.022,0,0,1-3.034-28.577c-.678-4.333-.107-8.666.446-13.271.223-1.91.446-3.877.562-5.845a148.773,148.773,0,0,1,6.3-32.852c3.48-10.915,10.12-16.372,21.374-17.885a112.2,112.2,0,0,1,13.164-.785V170.84m-.01,0a110.138,110.138,0,0,0-13.5.843c-11.758,1.57-19.348,7.309-23.284,19.407A150.335,150.335,0,0,0,1527,224.5c-.562,6.7-2.026,13.329-1.125,19.184a94.816,94.816,0,0,0,3.151,29.246c5.176,18.9,10.682,24.185,28.858,28.237a56.053,56.053,0,0,0,11.758,1.241c10.4,0,20.647-2.7,30.767-5.855,14.124-4.391,27.617-10.8,37.97-22.053,23.119-25.029,27.9-62.6-1.241-85.381a67.147,67.147,0,0,0-24.864-12.039c-13.891-3.548-27.9-6.243-42.186-6.243Z" transform="translate(-39.411 -2.21)"/>
    <path id="Path_73" data-name="Path 73" d="M1045.931,154.805a19.623,19.623,0,0,1,12.146,3.936c5.283,3.829,9.054,9,11.923,16.314,5.283,13.726,6.64,28.46,4.052,45.114l-.107.785c-1.629,10.295-3.267,20.928-8.327,30.04-2.588,4.837-5.739,7.2-9.616,7.2a15.811,15.811,0,0,1-6.979-1.91c-11.08-5.283-20.308-14.453-28.3-28.014-7.2-12.146-10.8-22.945-11.361-33.86-.223-3.829.727-7.542,1.745-11.361l.281-1.289c3.6-13.91,20.366-26.958,34.538-26.958m0-2.365c-15.859,0-33.075,14.628-36.729,28.741-1.124,4.44-2.423,8.715-2.084,13.329.62,12.825,5.283,24.244,11.594,34.984,7.309,12.379,16.537,22.722,29.3,28.916a19.389,19.389,0,0,0,7.987,2.142c4.663,0,8.608-2.695,11.642-8.433,5.341-9.674,6.979-20.7,8.666-31.611,2.472-15.859,1.687-31.33-4.168-46.3-2.695-6.979-6.524-12.883-12.708-17.381a22.188,22.188,0,0,0-13.5-4.391Z" transform="translate(-23.523 -1.646)" fill="#c852d5"/>
    <path id="Path_74" data-name="Path 74" d="M442.6,371.949c13.329,0,25.029,5.564,34.819,16.421,11.981,13.271,18.166,30.767,19.465,55.127.727,14.453-2.084,28.577-5.235,41.624-6.466,26.657-8.831,55.35-7.086,85.333,1.406,23.284,3.771,46.461,5.845,66.091,3.315,30.322,11.7,55.292,25.649,76.385,10.13,15.248,20.589,31.95,28.635,50.513,6.136,13.833,11.361,28.354,16.421,42.409l1.289,3.713c11.08,30.874,28.858,51.3,54.507,62.485,5.176,2.249,10.295,4.779,15.3,7.26l3.829,1.91c24.079,12.2,46.3,30.651,69.862,58.1A133.092,133.092,0,0,1,723.112,963.4c.281.446.562.9.843,1.406,1.124,1.793,1.628,2.753,1.241,3.829H665.852a37.55,37.55,0,0,1-7.367-5.235l-.843-.727a41.8,41.8,0,0,0-16.935-9.393,21.034,21.034,0,0,0-6.359-1.018c-7.542,0-13.833,4.275-17.381,11.816a10.426,10.426,0,0,1-3.936,4.556H564.99a11.861,11.861,0,0,1-2.753-5.283C558.3,948.561,550.7,935.9,539.012,924.6c-8.1-7.929-17.545-13.833-26.657-19.513-2.142-1.357-4.333-2.7-6.466-4.052-10.459-6.747-21.432-14.172-30.089-24.021-11.477-12.941-19.407-29.478-24.864-52.084-2.986-12.379-4.953-25.31-6.863-37.863-1.347-8.715-2.7-17.72-4.44-26.551-4.556-23.4-12.6-42.409-24.583-58.268-12.6-16.654-27.229-31.33-39.938-43.534-15.859-15.132-34.422-28.014-56.872-39.375-21.655-11.022-46.859-24.021-70.54-38.474a17.908,17.908,0,0,1-5.9-5.458v-81.9a13.294,13.294,0,0,1,5.06-5.235,338.851,338.851,0,0,1,30.826-16.537c38.7-18.108,71.267-40.044,99.611-66.934,16.2-15.413,32.173-25.31,48.827-30.263a57.971,57.971,0,0,1,16.479-2.588m0-2.259a62.592,62.592,0,0,0-17.158,2.588c-19.009,5.68-35.265,17.1-49.728,30.826-29.585,28.121-62.834,49.612-99,66.546a332,332,0,0,0-31.049,16.7,14.862,14.862,0,0,0-6.185,6.582v83.132a20.154,20.154,0,0,0,7.028,6.747c23,14.065,46.8,26.434,70.7,38.59,20.366,10.295,39.482,22.9,56.3,38.978,14.114,13.552,27.733,27.452,39.656,43.253,12.825,16.925,20.085,36.341,24.185,57.318,4.159,21.374,6.185,43.311,11.3,64.52,4.779,19.688,12.1,38.086,25.368,53.043,8.773,9.955,19.571,17.322,30.6,24.418,11.3,7.251,22.954,13.716,32.793,23.284,10.8,10.459,18.621,22.828,22.615,37.737.785,2.821,1.91,5.235,4.11,6.979H613.7a12.962,12.962,0,0,0,5.341-5.9c3.209-6.863,8.831-10.469,15.3-10.469a19.006,19.006,0,0,1,5.739.9,39.869,39.869,0,0,1,16.091,9c2.927,2.423,5.739,4.9,9.17,6.466h61.137c2.7-3.48,0-6.185-1.347-8.666a138.146,138.146,0,0,0-17.5-24.467c-20.473-23.846-43.03-44.716-70.589-58.666-6.417-3.15-12.708-6.359-19.232-9.228C591.2,858.3,574.616,836.765,564.6,808.761c-5.622-15.578-11.138-31.165-17.778-46.238-7.871-18.175-18.108-34.713-28.858-50.9-15.015-22.731-22.276-48.09-25.252-75.319-2.365-22.1-4.5-43.931-5.845-65.974-1.687-28.518.281-56.872,7.028-84.654,3.315-13.833,6.02-27.9,5.283-42.3-1.124-20.928-5.9-40.9-20.085-56.533-10.508-11.739-22.887-17.148-36.5-17.148Z" transform="translate(-0.002 -8.303)" fill="#f5276d"/>
    <path id="Path_75" data-name="Path 75" d="M610.07,101.137h36.448a9.459,9.459,0,0,1,3.936,4.953A151.716,151.716,0,0,0,658,121.842c10.634,19.184,21.491,40.054,29.139,62.378,3.654,10.915,7.425,19.407,11.923,26.657,3.034,5.06,6.64,10.236,12.485,13.5a18.215,18.215,0,0,0,8.714,2.472c5.855,0,10.8-3.6,13.949-10.013,3.829-7.988,5.176-17.041,3.936-26.89a374.014,374.014,0,0,0-7.425-38.7,290.646,290.646,0,0,1-7.483-46.578c-.165-1.8.116-2.811.727-3.548h47.7c.96,1.183,1.066,2.869,1.124,5.235V107.6c.058,5.845,0,11.816-.058,17.662-.116,9.9-.223,20.134.281,30.147.223,3.373.4,6.747.62,10.072.843,12.989,1.687,26.434,1.124,39.54-.785,19.009-4.217,33.414-10.74,45.453-7.765,14.065-18.34,22.1-31.388,23.963a44.858,44.858,0,0,1-6.7.446c-14.734,0-28.014-6.863-40.5-20.977-8.55-9.674-16.091-21.995-23.681-38.7-9.839-21.655-20.754-43.253-33.356-65.984-8.831-15.752-14.628-29.478-18.282-43.369-.659-2.646-.824-3.771-.039-4.721m-.96-2.307c-2.588,2.142-1.968,4.779-1.241,7.648,4.159,15.636,10.8,30.089,18.505,43.873,11.923,21.491,23.061,43.311,33.3,65.81,6.407,14.114,13.891,27.791,24.021,39.259,11.758,13.271,25.533,21.82,42.245,21.82a50.081,50.081,0,0,0,7.028-.5c14.909-2.142,25.533-11.584,33.075-25.2,7.765-14.23,10.353-30.205,11.022-46.4.727-16.537-.785-33.191-1.745-49.835-.785-15.859-.058-31.834-.223-47.751-.116-3.209.223-6.466-2.53-8.715H722.952c-1.745,1.57-2.249,3.49-2.026,6.02a293.162,293.162,0,0,0,7.542,46.907,365.393,365.393,0,0,1,7.367,38.416c1.124,9,.165,17.6-3.713,25.649-2.811,5.739-6.979,8.666-11.865,8.666a15.722,15.722,0,0,1-7.59-2.142c-5.235-2.869-8.608-7.542-11.642-12.66a124.73,124.73,0,0,1-11.7-26.27c-7.59-22.1-18.166-42.526-29.3-62.717a131.415,131.415,0,0,1-7.425-15.578,12.083,12.083,0,0,0-5.458-6.3c-12.66.01-25.252.01-38.028.01Z" transform="translate(-11.271 -0.003)" fill="#c852d5"/>
    <path id="Path_76" data-name="Path 76" d="M1426.321,953.85v2.307a151.152,151.152,0,0,1,28.906,3.1c19.125,3.829,30.322,12.253,36,27.278H1364.166c6.8-13.387,18.272-21.937,35.944-26.89a94.206,94.206,0,0,1,26.211-3.49V953.85m0,0a98.619,98.619,0,0,0-26.89,3.6c-16.76,4.672-31.165,13.445-38.871,31.388h133.868c-6.242-19.911-20.647-28.237-38.755-31.834a153.346,153.346,0,0,0-29.352-3.15Z" transform="translate(-34.355 -26.203)"/>
    <path id="Path_77" data-name="Path 77" d="M1367.97,101.137h108.9a26.546,26.546,0,0,1-6.349,7.483,80.1,80.1,0,0,1-50.562,17.216c-1.464,0-2.986,0-4.449-.116-21.714-1.018-37.291-9.122-47.537-24.583m-4.1-2.307c11.758,20.589,30.205,28.179,51.531,29.2,1.57.058,3.034.116,4.556.116,18.844,0,36.332-5.457,51.967-17.72,3.994-3.034,6.582-7.2,8.889-11.584q-58.481-.015-116.943-.01Z" transform="translate(-34.456 -0.004)" fill="#c852d5"/>
    <path id="Path_78" data-name="Path 78" d="M1084.632,419.987h.9c15.975.281,30.312,7.309,42.691,20.928,27.956,30.826,37.854,65.926,29.42,104.4-4.168,18.67-12.592,31.892-25.989,40.383-6.979,4.44-12.883,7.987-18.67,11.138a222.3,222.3,0,0,0-55.913,43.03c-9.558,10.4-18.224,19.746-26.774,29.478-18,20.706-39.492,40.5-65.587,60.633-27.9,21.491-47.7,42.138-62.272,64.918l-.679,1.018c-5.235,7.929-10.624,16.2-18.059,22.053-8.327,6.64-15.636,9.732-22.945,9.732a28.557,28.557,0,0,1-10.13-1.968c-9.393-3.655-17.72-10.343-24.748-19.911-15.917-21.656-30.04-46.684-44.552-78.741-6.359-14.007-8.21-25.145-6.02-36.118,3.548-17.778,14.007-29.527,33.976-38.028a268.725,268.725,0,0,1,26.211-9.277c6.524-2.084,13.222-4.217,19.8-6.747A127.368,127.368,0,0,0,905.029,604.4c11.981-12.766,21.937-28.635,31.33-49.951,12.941-29.808,29.759-53.547,51.473-72.392l6.921-6.078c15.19-13.445,30.99-27.278,47.809-38.978,13.213-8.966,26.425-17.012,42.07-17.012m0-2.307c-16.421,0-30.147,8.433-43.369,17.439-19.465,13.445-37.068,29.527-54.953,45.172-22.945,19.969-39.715,44.716-52.025,73.177-7.987,18.059-17.5,34.984-30.932,49.331a125.991,125.991,0,0,1-48.827,31.95c-15.3,5.8-31.049,9.558-46.122,16.033-17.5,7.483-31.165,18.728-35.323,39.715-2.7,13.329.843,25.814,6.185,37.524,12.6,27.9,26.89,54.778,44.775,79.138,6.921,9.393,15.355,16.644,25.766,20.705A30.294,30.294,0,0,0,860.769,830c8.831,0,16.876-4.226,24.408-10.236,7.987-6.349,13.561-15.073,19.184-23.623,16.6-25.872,38.193-46.18,61.709-64.346,23.74-18.282,46.122-38.135,65.974-60.914,8.782-10.013,17.778-19.746,26.716-29.42a218.351,218.351,0,0,1,55.292-42.584c6.466-3.49,12.65-7.26,18.844-11.2,15.074-9.616,23.177-24.467,27.006-41.905,9.112-41.4-3.044-76.725-29.924-106.368-11.807-12.989-26.551-21.433-44.319-21.714-.359-.01-.688-.01-1.028-.01Z" transform="translate(-16.324 -9.774)" fill="#f5276d"/>
    <g id="Group_49" data-name="Group 49" transform="translate(1239.313 500.887)">
      <path id="Path_79" data-name="Path 79" d="M1444.493,515.965a17.188,17.188,0,0,1,7.542,2.142c8.094,4.159,13.833,11.535,19.348,18.67l2.869,3.6c13.222,16.654,27.394,34.315,42.865,51.134,4.663,4.953,9.277,9.839,14.007,14.734,18,19.067,36.729,38.7,52.588,60.575,8.55,11.865,17.6,23.623,26.376,34.984,12.262,15.917,24.971,32.338,36.458,49.331,12.146,18,16.644,33.074,14.628,48.943-4.391,34.538-25.484,60.469-54.953,67.671a49.139,49.139,0,0,1-11.981,1.512c-10.353,0-28.751-3.654-36.06-28.014-2.7-9.112-4.9-18.505-7.037-27.559q-1.6-7.081-3.373-14.172c-8.327-33.026-24.864-55.011-50.5-67.157-19.8-9.286-41.178-13.784-65.247-13.784a231.134,231.134,0,0,0-29.032,1.968c-17.662,2.307-33.976,9.616-49.718,16.654-10.576,4.779-22.16,9.277-34.538,9.674-19.523,0-39.55-16.479-44.658-36.787a25.027,25.027,0,0,1,9.791-27.229,84.6,84.6,0,0,1,22.111-11.361c29.643-10.518,53.887-30.205,73.972-60.187,11.526-17.322,22.722-36,35.265-58.782l2.423-4.44c5.283-9.839,10.343-19.184,17.662-27.055,3.238-3.548,6.049-5.06,9.2-5.06m0-2.365c-3.829,0-7.2,1.861-10.905,5.845-8.666,9.277-14.288,20.754-20.415,31.95-11.021,20.027-22.557,39.656-35.149,58.607-18.563,27.675-42.138,48.429-72.789,59.286a87.226,87.226,0,0,0-22.731,11.7,27.234,27.234,0,0,0-10.624,29.643c5.341,21.268,26.434,38.532,46.907,38.532,12.543-.4,24.137-4.779,35.44-9.9,15.917-7.086,31.892-14.172,49.108-16.431a215.811,215.811,0,0,1,28.693-1.968c21.937,0,43.534,3.829,64.23,13.552,26.774,12.708,41.847,36.118,49.272,65.645,3.48,13.949,6.291,27.956,10.459,41.847,6.3,21.045,21.762,29.643,38.251,29.643a52.945,52.945,0,0,0,12.543-1.58c33.074-8.094,52.481-37.126,56.64-69.639,2.53-19.232-4.886-35.6-14.957-50.5-19.688-29.2-42.3-55.854-62.882-84.373-19.969-27.559-43.883-51.076-66.769-75.542-15.025-16.314-28.964-33.579-42.749-51.017-6.747-8.433-12.989-17.778-22.945-22.838-3.228-1.561-5.991-2.462-8.627-2.462Z" transform="translate(-1270.921 -513.6)" fill="#c852d5"/>
    </g>
    <path id="Path_80" data-name="Path 80" d="M455.216,101.136H512.65c3.548,16.372,9.509,33.414,18.563,53.383,10.236,22.16,21.539,43.989,33.753,65.025,18.9,33.016,39.879,67.5,69.687,94.609a296.809,296.809,0,0,0,48.827,36c23.846,14.065,50.513,21.82,74.02,28.741,19.29,5.564,33.239,18.951,41.566,39.821,8.1,20.415,12.039,36.671,12.825,52.82.9,17.322-2.472,30.147-10.576,40.383a91.552,91.552,0,0,1-23.226,20.589c-10.4,6.417-21.316,12.379-31.892,18.166-3.771,2.084-7.542,4.11-11.3,6.185-20.977,11.535-37.853,24.525-51.638,39.6-3.034,3.373-6.078,6.747-9.054,10.12-6.7,7.483-13.61,15.19-20.647,22.5-9.393,9.839-18.786,14.676-29.527,15.19-.679.058-1.347.058-2.026.058-20.928,0-38.251-18.728-46.122-37.291-7.929-18.389-9.732-38.639-5.564-61.932,1.861-10.236,4.333-20.647,6.747-30.709,1.066-4.5,2.191-9,3.209-13.5a123.467,123.467,0,0,0,2.588-39.094,303.91,303.91,0,0,0-10.178-52.588l-2.026-7.542c-6.8-24.748-13.784-50.29-25.2-73.691-3.267-6.64-8.433-16.314-16.256-23.74a88,88,0,0,0-36.225-19.911c-16.314-4.5-33.191-5.739-49.5-6.979-7.309-.562-14.909-1.124-22.276-1.968-10.518-1.241-21.035-2.423-30.544-7.028-5.9-2.927-15.578-9.616-14.065-22.382A67.262,67.262,0,0,1,384.637,221c7.59-13.5,16.6-25.707,25.2-36.9,19.5-25.31,37.611-50.736,45.376-82.957m-1.8-2.307c-7.483,32.735-25.93,58.559-45.4,83.927-9.17,11.816-18,23.9-25.426,37.185a69.431,69.431,0,0,0-8.327,25.766c-1.464,12.544,6.7,20.531,15.355,24.69,9.955,4.837,20.647,6.078,31.271,7.309,23.846,2.7,48.041,2.365,71.432,8.889a85.622,85.622,0,0,1,35.265,19.348c6.7,6.359,11.584,14.511,15.752,23.061,12.485,25.591,19.523,53.324,27.113,80.825a308.287,308.287,0,0,1,10.072,52.2,120.98,120.98,0,0,1-2.53,38.416c-3.373,14.734-7.309,29.42-9.955,44.271-3.877,21.539-3.034,42.972,5.68,63.222,8.608,20.192,26.774,38.7,48.264,38.7.679,0,1.406,0,2.142-.058,12.6-.62,22.557-6.979,31.107-15.917,10.178-10.576,19.852-21.772,29.7-32.629,14.851-16.314,32.231-28.8,51.075-39.152,14.453-8.046,29.139-15.694,43.311-24.408a95.09,95.09,0,0,0,23.788-21.093c9.558-12.146,11.865-26.493,11.08-41.963-.9-18.9-6.185-36.448-12.989-53.547-8.269-20.812-22.16-35.207-43.03-41.178-25.252-7.425-50.4-14.957-73.516-28.577a289.378,289.378,0,0,1-48.429-35.663c-29.023-26.376-49.67-59.848-69.3-94.047q-18.219-31.553-33.637-64.86c-7.987-17.6-14.792-35.546-18.786-54.73q-30.462.029-61.089.019Z" transform="translate(-4.127 -0.003)" fill="#f5276d"/>
    <g id="Group_50" data-name="Group 50" transform="translate(938.365 743.381)">
      <path id="Path_81" data-name="Path 81" d="M1105.02,766.057a23.173,23.173,0,0,1,16.431,6.64c10.576,10.12,10.905,23.168,10.236,37.96-.281,6.3-.785,12.6-1.241,18.844-.562,7.425-1.183,15.015-1.464,22.557-.562,15.519,1.241,30.826,3.15,45.114,3.373,25.029,10.295,45.725,21.045,63.28,1.008,1.687,2.084,3.267,3.151,4.9,3.141,4.837,6.407,9.839,8.55,15.355H963.5c4.614-27.452,11.7-54.846,18.563-81.4l3.829-14.851c7.929-30.99,18.844-62.776,45-85.274,22.334-19.348,45.56-30.147,70.986-32.958a30.136,30.136,0,0,1,3.141-.165m0-2.3c-1.125,0-2.249.058-3.373.165-27.278,3.034-51.075,15.19-72.275,33.52-25.93,22.334-37.291,53.547-45.734,86.457-8.21,32.115-16.983,64.123-22.5,96.916a15.8,15.8,0,0,1-.679,2.191h207.617c-2.646-8.937-8.21-16.14-12.941-23.74-11.642-19.067-17.72-40.219-20.7-62.436-2.084-14.851-3.655-29.759-3.209-44.658.562-13.775,2.084-27.5,2.811-41.392.562-14.453.562-28.693-11.021-39.763a25.325,25.325,0,0,0-18-7.26Z" transform="translate(-960.46 -763.76)" fill="#c852d5"/>
    </g>
    <g id="Group_51" data-name="Group 51" transform="translate(1509.722 351.606)">
      <path id="Path_82" data-name="Path 82" d="M1650.7,361.849a188.122,188.122,0,0,1,27.559,2.084c8.831,1.347,17.439,4.556,25.872,7.706,4.226,1.57,8.608,3.209,13.047,4.614V509.9c-5.962,1.464-11.875,3.034-17.778,4.5-16.935,4.275-32.231,6.3-46.742,6.3a136.811,136.811,0,0,1-37.97-5.176c-27.675-7.871-58.9-36-62.214-72.556-2.588-29.023,9.451-54.051,31.5-65.364,20.483-10.576,42.3-15.752,66.721-15.752m0-2.249c-23.284,0-46.006,4.672-67.729,15.917-23.963,12.321-35.323,39.433-32.735,67.671,3.209,35.827,32.852,65.693,63.842,74.582a140.634,140.634,0,0,0,38.59,5.283c15.8,0,31.553-2.472,47.3-6.417,6.524-1.687,12.989-3.315,19.513-4.953V374.548c-13.726-4.159-26.716-10.74-40.888-12.941a197.533,197.533,0,0,0-27.9-2.007Z" transform="translate(-1549.877 -359.6)" fill="#c852d5"/>
    </g>
    <g id="Group_52" data-name="Group 52" transform="translate(239.478 687.75)">
      <path id="Path_83" data-name="Path 83" d="M284.313,708.667a71.674,71.674,0,0,1,12.825,1.076c29.527,5.341,49.05,25.145,58,58.782,5.8,21.316,5.235,44.891-1.745,72.052-7.59,29.255-24.185,46.975-50.678,54.11-18.389,5.06-36.622,5.458-58.559,5.458h-2.365V856.107c1.066-1.124,2.472-1.183,4.779-1.3h.785c1.745-.058,3.548-.058,5.341-.058h2.753a110.4,110.4,0,0,0,18.389-1.066c32.629-5.8,52.985-32.008,51.861-66.828-.727-21.6-13.891-37.689-33.637-40.888a36.554,36.554,0,0,0-6.747-.562,61.832,61.832,0,0,0-8.715.679c-10.236,1.464-19.852,4.391-30.486,7.765l-.62.165a8.575,8.575,0,0,1-2.53.62,1.656,1.656,0,0,1-1.183-.456V714.348H242c5.341-.785,10.8-1.57,16.14-2.646,7.222-1.4,16.78-3.034,26.173-3.034m0-2.3a137.8,137.8,0,0,0-26.609,3.092c-6.02,1.183-12.1,2.026-18.224,2.927v42.69a4.217,4.217,0,0,0,3.49,1.851,13.869,13.869,0,0,0,3.829-.9c9.955-3.15,19.911-6.194,30.147-7.648a59.509,59.509,0,0,1,8.385-.679,40.861,40.861,0,0,1,6.359.5c18.786,3.092,31.049,18.117,31.727,38.7,1.066,33.695-18.67,58.947-49.951,64.52a112.886,112.886,0,0,1-18,1.018h-2.753c-1.851,0-3.654,0-5.457.058-2.869.107-5.739-.058-7.765,2.811v47.14h4.672c19.911,0,39.715-.174,59.17-5.516,27.733-7.483,44.716-26.551,52.307-55.806,6.185-24.185,8.327-48.875,1.745-73.235-8.608-32.231-27.51-54.555-59.848-60.41a74.694,74.694,0,0,0-13.222-1.115Z" transform="translate(-239.48 -706.37)" fill="#c852d5"/>
    </g>
    <path id="Path_84" data-name="Path 84" d="M1158.122,101.137h44.154l-.058,4.614c0,5.8,0,11.535.116,17.264a65.151,65.151,0,0,1-2.026,17.662c-.785,2.811-2.753,7.542-7.309,7.542a10.416,10.416,0,0,1-5.574-1.91,28.158,28.158,0,0,1-4.9-4.11,108.235,108.235,0,0,1-24.408-41.062m-3.092-2.307a108.932,108.932,0,0,0,25.814,44.891,30.5,30.5,0,0,0,5.4,4.614,13.022,13.022,0,0,0,6.747,2.191c4.381,0,7.871-3.209,9.558-9.277a66.436,66.436,0,0,0,2.084-18.34c-.165-7.988-.058-15.975-.058-24.079Z" transform="translate(-28.057 -0.004)" fill="#c852d5"/>
    <path id="Path_85" data-name="Path 85" d="M895.046,238.015a15.061,15.061,0,0,1,9.393,3.373c11.3,8.666,17.778,21.258,19.184,37.408.843,9.955-1.3,17.943-6.078,23.226-4.11,4.391-10.188,6.747-17.6,6.747a12.838,12.838,0,0,1-2.026.116A24.235,24.235,0,0,1,873.836,289.2c-3.315-17.439-.388-32.066,9.005-44.61a15.2,15.2,0,0,1,12.2-6.572h0m0-2.365a17.47,17.47,0,0,0-14.065,7.542c-10.353,13.833-12.592,29.643-9.393,46.461a26.36,26.36,0,0,0,26.328,21.491h2.026c17.6,0,27.675-12.262,25.988-32.512-1.406-15.975-7.59-29.478-20.075-39.094a17.742,17.742,0,0,0-10.808-3.887Z" transform="translate(-19.33 -4.196)" fill="#f5276d"/>
    <g id="Group_53" data-name="Group 53" transform="translate(1213.33 207.831)">
      <path id="Path_86" data-name="Path 86" d="M1261.258,211.28v2.365c17.72,0,33.627,5.739,52.588,13.387,21.268,8.608,46.578,18.224,72.731,24.079,4.226.785,9.005,1.91,12.766,4.217,10.576,6.64,12.262,11.642,7.706,22.557a46.831,46.831,0,0,1-6.243,11.08l-2.133,2.753c-6.979,8.773-13.949,17.439-20.928,26.328-18.389,23.458-30.99,46.345-38.581,70.085-6.078,19.184-8.666,41.062-7.648,64.966,0,4.11,0,7.823.058,11.3.048,6.64.107,11.923-.175,17.264-.562,11.535-1.968,24.971-8.327,37.514a43.45,43.45,0,0,1-14.056,16.421,22.389,22.389,0,0,1-12.543,4.333c-8.608,0-16.033-6.359-20.308-17.5-3.936-10.576-4.556-22.053-5.176-33.239l-.116-2.472c-.446-8.666-.446-17.5-.388-26.047,0-9.335.058-19.009-.562-28.577-1.406-21.878-1.406-44.212-1.289-65.868V353.746a274.212,274.212,0,0,0-3.877-42.245,338.93,338.93,0,0,0-7.706-33.86c-1.464-5.622-2.927-11.254-4.217-16.983-.62-2.695-1.406-5.458-2.084-8.21-2.365-8.889-4.6-17.216-4.275-26.328.223-5.516,2.482-12.1,11.7-12.485h3.1V211.28m-.02,0a29.5,29.5,0,0,0-3.209.116c-8.55.339-13.5,5.622-13.891,14.628-.5,12.379,3.655,23.623,6.407,35.207,3.994,16.935,9.17,33.414,11.875,50.62a267.381,267.381,0,0,1,3.877,41.905c0,26.153-.388,52.365,1.3,78.528,1.125,18.282,0,36.39,1.018,54.565.62,12.2,1.018,24.748,5.4,36.39,4.837,12.708,13.28,19.009,22.45,19.009a24.766,24.766,0,0,0,13.891-4.721,45.818,45.818,0,0,0,14.744-17.322c6.126-12.039,7.987-25.087,8.656-38.416.339-8.269,0-16.479,0-28.741-.727-19.125.62-42.07,7.6-64.239,8.269-25.93,21.878-48.487,38.193-69.3,7.706-9.79,15.4-19.465,23.109-29.139a48.713,48.713,0,0,0,6.524-11.584c4.779-11.419,3.267-17.943-8.608-25.426-4.052-2.472-8.889-3.6-13.5-4.5-24.864-5.564-48.71-14.395-72.392-23.963-17.274-6.979-34.6-13.62-53.44-13.62Z" transform="translate(-1244.117 -211.28)" fill="#c852d5"/>
    </g>
    <g id="Group_54" data-name="Group 54" transform="translate(239.478 726.272)">
      <path id="Path_87" data-name="Path 87" d="M286.339,748.417c.62,0,1.289.058,1.968.058,15.355.5,28.4,10.857,33.191,26.27,4.9,16.256,2.588,34.373-6.359,49.728-8.327,14.23-21.539,24.292-36.225,27.559-8.666,1.91-17.5,2.084-26.493,2.084h-4.275c-2.142,0-4.217,0-6.359.058V758.1c1.851-.446,3.654-.96,5.516-1.522l1.851-.562c12.039-3.722,24.476-7.6,37.185-7.6m0-2.307c-13.726,0-26.657,4.275-39.715,8.269-2.365.727-4.672,1.289-7.144,1.91V856.52c2.869-.116,5.8-.116,8.666-.116h4.275c9,0,18-.107,27-2.133,33.239-7.425,54.614-45.948,44.271-80.2-5.06-16.314-19.067-27.336-35.323-27.9-.679,0-1.347-.058-2.026-.058Z" transform="translate(-239.48 -746.11)" fill="#003ca7"/>
    </g>
    <g id="Group_55" data-name="Group 55" transform="translate(588.4 341.815)">
      <path id="Path_88" data-name="Path 88" d="M614.552,351.865a28.676,28.676,0,0,1,6.466.9c10.915,2.986,20.754,9.228,30.263,15.3l2.249,1.464c20.531,13.106,40.723,26.715,60.246,39.879,13.387,8.889,26.211,17.827,36.787,29.759,10.973,12.485,15.859,25.087,15.248,39.6.727,10.857-3.15,20.647-11.758,30.263-11.2,12.321-24.806,20.7-35.382,26.667l-7.823,4.391c-15.471,8.715-31.553,17.778-46.461,28.344a114.657,114.657,0,0,1-17.381,10.634,21.287,21.287,0,0,1-9,2.307c-7.765,0-12.6-6.359-13.048-16.935a97.929,97.929,0,0,1,1.628-21.258c3.877-25.2,3.092-48.429-2.307-71.044-2.53-10.576-5.622-21.151-8.608-31.271-3.373-11.419-6.8-23.236-9.451-35.1-2.53-11.642-4.837-24.244-4.44-37.126.339-11.148,4.614-16.77,12.767-16.77m0-2.365c-9.451,0-14.676,6.524-15.073,19.009-.4,12.825,1.8,25.368,4.5,37.8,5,22.5,12.766,43.989,18.059,66.314,5.564,23.284,5.9,46.519,2.307,70.143a99.805,99.805,0,0,0-1.687,21.714c.5,12.262,6.466,19.184,15.355,19.184a23.947,23.947,0,0,0,10.013-2.53,118,118,0,0,0,17.72-10.857c17.264-12.262,35.769-22.218,54.051-32.57,13.048-7.309,25.533-15.636,35.944-27.113,8.1-9,13.222-19.29,12.379-31.727.679-16.7-5.622-29.7-15.81-41.178-10.915-12.379-23.962-21.374-37.233-30.205-19.969-13.445-40-26.938-60.294-39.938-10.518-6.7-21.035-13.668-33.133-16.983a29.28,29.28,0,0,0-7.1-1.057Z" transform="translate(-599.432 -349.5)" fill="#c852d5"/>
    </g>
    <path id="Path_89" data-name="Path 89" d="M481.4,196.2v2.307c8.269,0,15.413,5.564,19.571,15.248,2.423,5.564,2.53,11.022.339,15.3a14.059,14.059,0,0,1-9.791,7.309,47.619,47.619,0,0,1-10.973,1.241,60.168,60.168,0,0,1-15.015-2.026c-5.235-1.464-9.509-7.2-9.509-12.825,0-6.126.5-7.542,8.385-15.917,5.176-5.457,11.022-8.327,16.983-8.327V196.2m.01,0c-6.3,0-12.883,2.927-18.67,9.054-7.929,8.433-9,10.518-9,17.5,0,6.524,4.9,13.271,11.254,15.074a61.688,61.688,0,0,0,15.578,2.142,49.883,49.883,0,0,0,11.477-1.347c11.419-2.695,16.2-13.833,11.08-25.766-4.74-10.925-12.951-16.654-21.723-16.654Z" transform="translate(-6.567 -2.987)"/>
    <g id="Group_56" data-name="Group 56" transform="translate(1013.621 833.377)">
      <path id="Path_90" data-name="Path 90" d="M1055.538,858.9c1.861,0,3.713.96,5.516,2.869,7.484,7.648,9.51,20.987,4.556,29.817-3.373,6.243-7.144,9.335-11.923,9.791a11.457,11.457,0,0,1-6.64-2.695c-6.407-5.012-6.921-12.941-6.582-17.216.562-8.773,5.283-18.059,10.576-21.151a9.835,9.835,0,0,1,4.5-1.415m0-2.3a11.449,11.449,0,0,0-5.622,1.745c-10.295,5.962-18.34,31.165-4.275,42.128a13.455,13.455,0,0,0,8.269,3.209c6.689-.62,10.857-5.632,13.726-10.973,5.574-10.013,2.927-24.515-4.9-32.512-2.365-2.414-4.721-3.6-7.2-3.6Z" transform="translate(-1038.094 -856.6)" fill="#c852d5"/>
    </g>
    <path id="Path_91" data-name="Path 91" d="M1636.6,404.905c20.754,0,41.624,10.013,55.69,26.774,8.327,10.013,7.987,22.615-.785,31.33-12.543,12.427-27.782,18.34-47.925,18.621h-1.522c-14.792,0-26.715-4.052-36.39-12.262-10.295-8.947-14.909-19.125-14.124-31.165.96-13.387,8.046-23.177,20.473-28.354a61.781,61.781,0,0,1,24.583-4.944m0-2.365a64.694,64.694,0,0,0-25.484,5.176c-12.543,5.176-20.812,15.471-21.878,30.37-.9,13.726,5.06,24.467,14.967,32.958,11.08,9.509,24.021,12.825,37.853,12.825h1.522c18.67-.223,35.323-5.118,49.554-19.232,9.17-9.112,10.295-23.177.96-34.422-14.967-17.778-36.341-27.675-57.493-27.675Z" transform="translate(-41.359 -9.31)" fill="#f5276d"/>
    <path id="Path_92" data-name="Path 92" d="M651.773,101.137h70.366l.446,4.556c.679,6.185,1.289,12.379,2.142,18.563,1.406,10.353,3.771,20.589,6.02,30.544,1.91,8.492,3.936,17.264,5.341,26.047,1.58,9.674,2.7,18.34.5,26.89-1.464,6.078-3.034,11.361-7.483,14.511a13.669,13.669,0,0,1-8.269,3.034c-3.713,0-7.483-1.8-11.254-5.341-7.028-6.8-11.2-15.917-14.792-24.583-2.249-5.4-4.333-10.915-6.359-16.421-4.159-11.022-8.433-22.5-14.065-33.074-2.026-3.936-4.11-7.765-6.185-11.584-5.777-10.644-11.739-21.617-16.411-33.142M648.4,98.83c6.466,16.877,15.636,32.173,23.963,48.032,8.269,15.752,13.552,32.958,20.308,49.389,3.877,9.277,8.152,18.34,15.355,25.31,4.11,3.936,8.492,6.02,12.825,6.02a16.088,16.088,0,0,0,9.616-3.432c5.176-3.713,6.921-9.9,8.385-15.859,2.365-9.277,1.008-18.621-.5-27.791-2.986-19.067-8.773-37.466-11.3-56.581-1.183-8.327-1.91-16.654-2.811-25.087Z" transform="translate(-12.532 -0.004)" fill="#f5276d"/>
    <g id="Group_57" data-name="Group 57" transform="translate(613.708 943.389)">
      <path id="Path_93" data-name="Path 93" d="M646.013,972.407A23.873,23.873,0,0,1,654,973.919c7.929,2.986,14.114,7.319,18.728,13.106h-43.65c.116-.339.281-.679.4-1.018,2.414-6.233,7.2-13.6,16.537-13.6m0-2.317c-8.385,0-14.909,5.235-18.67,15.083-.562,1.454-1.241,2.695-1.8,4.159h51.638c-5.516-8.773-13.329-14.172-22.383-17.555a26.045,26.045,0,0,0-8.782-1.687Z" transform="translate(-625.54 -970.09)" fill="#c852d5"/>
    </g>
    <g id="Group_58" data-name="Group 58" transform="translate(294.338 412.462)">
      <path id="Path_94" data-name="Path 94" d="M436.123,424.629c6.582,0,12.543,3.6,16.654,10.12a31.7,31.7,0,0,1,4.333,12.146c2.249,12.379.9,24.971-.446,37.126-.4,3.49-.727,6.863-1.066,10.353-1.8,19.009-2.249,34.422-1.406,48.487l.727,10.8c.96,14.851,1.968,30.089,2.307,45.114.4,17.5-1.629,31.553-6.359,44.319-3.267,8.831-8.327,13.106-15.529,13.106a24.781,24.781,0,0,1-6.921-1.124c-7.542-2.307-15.073-6.243-23.8-12.379l-3.15-2.249C379.251,624.636,356.3,608.216,333.8,591.9c-7.823-5.68-15.975-11.923-22.615-19.969-15.975-19.523-16.983-36.448-3.432-54.846a75.109,75.109,0,0,1,14.007-14.007c9-6.921,18.34-13.784,27.336-20.308,15.636-11.477,31.834-23.284,46.907-36.283,8.385-7.26,19.688-16.14,33.191-20.647a22.941,22.941,0,0,1,6.931-1.212h0m0-2.249a23.317,23.317,0,0,0-7.648,1.347C415.708,428,404.793,435.873,394.5,444.762c-23.623,20.473-49.5,37.466-74.136,56.475a76.757,76.757,0,0,0-14.453,14.511c-15.413,20.812-11.535,39.259,3.49,57.657,6.64,8.046,14.792,14.346,23.061,20.366,23.507,17.1,47.14,33.918,70.821,50.794,7.648,5.4,15.636,10.013,24.467,12.708a25.5,25.5,0,0,0,7.59,1.241c8.152,0,14.114-4.953,17.662-14.628,5.4-14.511,6.863-29.7,6.524-45.172-.446-18.67-1.861-37.291-3.034-55.971-.96-16.091-.116-32.173,1.406-48.206,1.406-16.033,4.44-31.892,1.464-48.041a34.549,34.549,0,0,0-4.614-12.989c-4.614-7.183-11.2-11.128-18.621-11.128Z" transform="translate(-296.074 -422.38)" fill="#c852d5"/>
    </g>
    <g id="Group_59" data-name="Group 59" transform="translate(887.596 460.843)">
      <path id="Path_95" data-name="Path 95" d="M1079.8,474.646a27.424,27.424,0,0,1,6.524,1.124l.9.223c9.277,2.142,17.6,8.55,22.838,17.662,5.458,9.616,6.8,20.812,3.6,30.651a64.215,64.215,0,0,1-13.726,23.119c-6.136,6.64-12.708,12.941-19.009,19.125-3.6,3.373-7.086,6.747-10.576,10.236-18.786,18.9-38.241,40.781-61.312,68.9-12.214,14.792-27.336,31.5-47.024,43.2-12.214,7.309-22.9,11.022-33.811,11.7-.62.058-1.231.058-1.91.058-6.407,0-10.8-2.084-13.833-6.64-3.373-5.06-2.249-9.955.843-16.7,2.918-6.417,6.126-13.106,10.566-18.728a305.7,305.7,0,0,0,47.7-86.341c8.21-22.557,18.67-40.1,32.057-53.605a200.133,200.133,0,0,1,48.148-35.721c9.955-5.118,18.457-7.706,26.716-8.21a10.291,10.291,0,0,1,1.308-.058m0-2.356a13.46,13.46,0,0,0-1.464.116c-9.791.562-18.9,3.994-27.559,8.492a199.926,199.926,0,0,0-48.71,36.109c-15.083,15.19-25.2,34.034-32.629,54.449a302.212,302.212,0,0,1-47.363,85.72c-4.556,5.739-7.765,12.379-10.857,19.184-2.869,6.243-5,12.485-.679,18.961,3.936,5.9,9.616,7.648,15.752,7.648.679,0,1.415,0,2.084-.058,12.485-.785,23.963-5.516,34.761-12.039,18.67-11.022,33.637-26.657,47.644-43.708,19.523-23.74,39.656-47.024,61.2-68.737,9.839-9.839,20.192-19.067,29.643-29.42a67.5,67.5,0,0,0,14.23-23.962c6.921-21.374-6.747-46.461-28.073-51.3a33,33,0,0,0-7.978-1.454Z" transform="translate(-908.086 -472.29)" fill="#c852d5"/>
    </g>
    <g id="Group_60" data-name="Group 60" transform="translate(1372.719 581.828)">
      <path id="Path_96" data-name="Path 96" d="M1454.953,597.1v2.307c6.02,0,12.825,2.588,20.705,8.046a167.07,167.07,0,0,1,46.006,47.188c6.359,9.616,9.9,17.662,11.535,25.988a12.3,12.3,0,0,1-1.687,9.335,10.59,10.59,0,0,1-6.863,4.333,59.879,59.879,0,0,1-10.905,1.347c-.562,0-1.125,0-1.687-.048a490.6,490.6,0,0,1-51.415-6.194c-12.708-2.249-26.212-5-38.357-12.146-9.335-5.4-13.28-15.015-10.576-25.766,3.48-14.007,9.112-25.707,16.644-34.819,10.013-12.1,18-17.264,26.609-17.264V597.1m-.01,0c-10.072,0-18.728,6.407-28.4,18.108-8.433,10.178-13.842,22.615-17.1,35.721-2.986,11.923,1.522,22.441,11.7,28.3,12.262,7.2,25.6,10.072,39.036,12.427a490.033,490.033,0,0,0,51.686,6.243c.62.058,1.3.058,1.861.058a58.313,58.313,0,0,0,11.245-1.406c7.532-1.3,12.039-8.385,10.459-16.372-1.91-9.955-6.466-18.621-11.816-26.774a168.992,168.992,0,0,0-46.684-47.867c-8.317-5.729-15.461-8.433-21.985-8.433Z" transform="translate(-1408.544 -597.1)" fill="#c852d5"/>
    </g>
    <path id="Path_97" data-name="Path 97" d="M391.087,533.33l.223,2.307c6.979,0,10.973,5.8,13.164,10.634a36.434,36.434,0,0,1,3.877,16.2c-.058,7.648-3.829,15.752-10.8,15.752a14.525,14.525,0,0,1-7.26-2.307l-2.249-1.347c-3.315-1.968-6.466-3.829-8.831-6.7a27.9,27.9,0,0,1-6.8-14.453,20.379,20.379,0,0,1,2.307-7.26c3.829-6.863,9.451-10.517,16.372-10.517V533.33m0,0c-7.765,0-14.23,4.217-18.389,11.7a22.23,22.23,0,0,0-2.588,8.714,31.1,31.1,0,0,0,7.367,15.636c3.209,3.829,7.542,5.962,11.642,8.492a16.368,16.368,0,0,0,8.433,2.646c8.327,0,13.048-9,13.106-17.943a39.045,39.045,0,0,0-4.11-17.216c-3.15-7.086-8.152-12.039-15.19-12.039-.107.01-.223.01-.271.01Z" transform="translate(-4.005 -13.317)"/>
  </g>
</svg>
