<svg xmlns="http://www.w3.org/2000/svg" width="35.02" height="48" viewBox="0 0 35.02 48">
  <g id="Fisique_Logo_Icon" data-name="Fisique Logo Icon" transform="translate(-728.629 -261.429)">
    <path id="Path_3" data-name="Path 3" d="M752.468,297.747c-1.072,1.016-2.091,1.982-2.974,2.858l.406.263c3.275,2.127,6.37,4.136,10.374,3.975a1.488,1.488,0,0,1,1.366.681,1.8,1.8,0,0,1,.05,1.769,1.6,1.6,0,0,1-1.393.862c-5.156.215-9.2-2.576-13.107-5.276-1.692,1.634-3.227,3.022-4.687,4.237a10.141,10.141,0,0,1-6.3,2.313,7.334,7.334,0,0,1-1.691-.194,5.628,5.628,0,0,1-3.98-3.384,5.335,5.335,0,0,1,.351-5.295c1.747-2.6,5.693-3.915,8.659-3.86a14.934,14.934,0,0,1,7.049,2.127c.534-.536,1.334-1.4,2.049-2.165l.425-.457a17.509,17.509,0,1,1,14.588-17.219c-.016,6.213-3.652,11.246-6.7,14.375C755.7,294.683,754.057,296.241,752.468,297.747ZM746.175,265.2a13.746,13.746,0,1,0,13.712,13.781A13.762,13.762,0,0,0,746.175,265.2ZM733.6,304.553a2.478,2.478,0,0,0,1.64,1.454,5.85,5.85,0,0,0,4.472-.9,22.893,22.893,0,0,0,3.234-2.831c.395-.391.8-.792,1.208-1.174a11.454,11.454,0,0,0-4.784-1.1c-.244,0-.489.007-.735.023-1.844.122-4.141.946-4.964,2.286A2.339,2.339,0,0,0,733.6,304.553Z" fill="#fff"/>
  </g>
</svg>
