<svg xmlns="http://www.w3.org/2000/svg" width="149.01" height="37.856" viewBox="0 0 149.01 37.856">
  <g id="Fisique_Logo_Title" data-name="Fisique Logo Title" transform="translate(-60 -37)">
    <path id="XMLID_960_" d="M1065.845,406.911l-1.42,0a.774.774,0,0,0-.775.772l-.043,17.039a5.96,5.96,0,0,1-11.92-.03l.043-17.039a.774.774,0,0,0-.773-.775l-1.42,0a.774.774,0,0,0-.775.772l-.043,17.039a8.929,8.929,0,0,0,15.224,6.343,9.04,9.04,0,0,0,2.62-5.289.812.812,0,0,0,.007-.1l.045-17.943A.771.771,0,0,0,1065.845,406.911Z" transform="translate(-879.695 -369.1)" fill="#575757"/>
    <path id="XMLID_959_" d="M1180.578,410.148a.774.774,0,0,0,.775-.772l0-1.4a.774.774,0,0,0-.772-.775l-11.139-.027a.774.774,0,0,0-.775.772l-.061,24.966a.774.774,0,0,0,.772.775l11.139.027a.774.774,0,0,0,.775-.772l0-1.4a.774.774,0,0,0-.772-.775l-8.96-.023.023-8.829,5.6.014a.774.774,0,0,0,.775-.772l0-1.4a.774.774,0,0,0-.772-.775l-5.6-.014.023-8.828Z" transform="translate(-972.348 -369.332)" fill="#575757"/>
    <path id="XMLID_955_" d="M908.175,428.661c2.4-2.467,5.271-6.436,5.284-11.337A13.823,13.823,0,1,0,901.952,430.9c-.107.116-.22.236-.334.359-.563.607-1.195,1.286-1.615,1.708a11.776,11.776,0,0,0-5.559-1.677c-2.34-.043-5.453.993-6.829,3.044a4.212,4.212,0,0,0-.277,4.176,4.44,4.44,0,0,0,3.14,2.669,5.7,5.7,0,0,0,1.334.152,8,8,0,0,0,4.973-1.824c1.152-.959,2.363-2.054,3.7-3.342,3.081,2.129,6.27,4.33,10.337,4.162a1.268,1.268,0,0,0,1.1-.682,1.418,1.418,0,0,0-.041-1.395,1.167,1.167,0,0,0-1.077-.536c-3.158.127-5.6-1.459-8.181-3.135l-.32-.207c.7-.691,1.5-1.452,2.345-2.254C905.891,430.933,907.189,429.7,908.175,428.661Zm2.315-11.346a10.841,10.841,0,1,1-10.814-10.869A10.853,10.853,0,0,1,910.49,417.316Zm-20.67,18.4c.647-1.056,2.46-1.706,3.914-1.8.193-.014.386-.018.579-.018a9.037,9.037,0,0,1,3.774.87c-.32.3-.641.618-.952.925a18.019,18.019,0,0,1-2.551,2.233,4.614,4.614,0,0,1-3.528.707,1.95,1.95,0,0,1-1.293-1.147A1.833,1.833,0,0,1,889.82,435.72Z" transform="translate(-753.819 -366.48)" fill="#575757"/>
    <path id="XMLID_296_" d="M668.29,405.925l-1.4,0a.774.774,0,0,0-.775.772l-.061,24.966a.774.774,0,0,0,.772.775l1.4,0a.774.774,0,0,0,.775-.772l.061-24.966A.775.775,0,0,0,668.29,405.925Z" transform="translate(-583.963 -368.366)" fill="#575757"/>
    <path id="XMLID_297_" d="M728.592,414.878a9.731,9.731,0,0,1-2.667-1.752,3.117,3.117,0,0,1,4.41-4.405,3.112,3.112,0,0,1,.738,1.127.775.775,0,0,0,1.011.454l1.265-.5a.777.777,0,0,0,.457-.952,5.19,5.19,0,0,0-1.374-2.176,6.077,6.077,0,0,0-8.583-.009,6.036,6.036,0,0,0-.02,8.542,11.259,11.259,0,0,0,4.46,2.615,10.7,10.7,0,0,1,3.533,2.3,5.239,5.239,0,1,1-7.429,7.39,7.731,7.731,0,0,1-1.511-2.186.791.791,0,0,0-.568-.42.777.777,0,0,0-.67.216l-.952.947a.767.767,0,0,0-.17.841,8.13,8.13,0,0,0,1.788,2.656,8.161,8.161,0,1,0,11.58-11.5A13.235,13.235,0,0,0,728.592,414.878Z" transform="translate(-626.012 -367.577)" fill="#575757"/>
    <path id="XMLID_298_" d="M833.58,406.335l-1.4,0a.774.774,0,0,0-.775.772l-.061,24.966a.774.774,0,0,0,.772.775l1.4,0a.774.774,0,0,0,.775-.772l.061-24.966A.775.775,0,0,0,833.58,406.335Z" transform="translate(-711.701 -368.683)" fill="#575757"/>
    <path id="XMLID_299_" d="M580.805,405.717l-11.139-.027a.774.774,0,0,0-.775.772l-.061,24.966a.774.774,0,0,0,.772.775l1.4,0a.774.774,0,0,0,.775-.772l.027-11.007,5.6.014a.774.774,0,0,0,.775-.772l0-1.4a.774.774,0,0,0-.772-.775l-5.6-.014.023-8.828,8.96.023a.774.774,0,0,0,.775-.772l0-1.4A.773.773,0,0,0,580.805,405.717Z" transform="translate(-508.83 -368.188)" fill="#575757"/>
  </g>
</svg>
