<svg id="Layer_1" data-name="Layer 1" xmlns="http://www.w3.org/2000/svg" viewBox="0 0 247.5 148.88"><defs><style>.cls-1{fill:#fff;}</style></defs><title>MB_LOGO_Lockups_2016</title><path class="cls-1" d="M151.09,63.59a28.63,28.63,0,0,1-1.53,4.3c-0.08.36-.2,0.83-0.39,1.48l0.21-.37A38.75,38.75,0,0,0,152,62.09a21.16,21.16,0,0,0,.47-2.76A41.55,41.55,0,0,1,151.09,63.59Z"/><path class="cls-1" d="M149.24,51.78c0,0.42,0,.82,0,1.23l0-.31C149.25,52.4,149.25,52.09,149.24,51.78Z"/><path class="cls-1" d="M117.49,22.82a26.32,26.32,0,0,1,4.35.37,28.2,28.2,0,0,1,10.75,4,28.32,28.32,0,0,0-7.49-3.75A20.74,20.74,0,0,0,117.49,22.82Z"/><path class="cls-1" d="M110.43,23.85a58.88,58.88,0,0,1,7.06-1,26.48,26.48,0,0,0-6.49.79C110.81,23.69,110.61,23.75,110.43,23.85Z"/><path class="cls-1" d="M126.44,23.47a19.92,19.92,0,0,0-6.26-1.05A29.09,29.09,0,0,1,131.6,26,28.7,28.7,0,0,0,126.44,23.47Z"/><path class="cls-1" d="M134.73,82.15c-0.81.49-1.66,0.93-2.54,1.38A19.66,19.66,0,0,0,134.73,82.15Z"/><path class="cls-1" d="M149.56,67.88c0.61-3.11-1.38,2.81,0,0h0Z"/><path class="cls-1" d="M120.85,11.84a35.3,35.3,0,0,1,5.9.13,33.74,33.74,0,0,0-4.52-.83,42.34,42.34,0,0,0-8.6.14A38.73,38.73,0,0,1,120.85,11.84Z"/><path class="cls-1" d="M151.94,35c-0.27-.9-0.71-1.75-1.07-2.63a32.53,32.53,0,0,0-12.63-13.73c0.32,0.25.65,0.5,1,.77a35.83,35.83,0,0,1,3.5,3,38,38,0,0,0-3.29-2.82l0.69,0.61a32.86,32.86,0,0,1,4.84,5c-0.44-.4-1.06-1-1.67-1.65,0.41,0.51.81,1,1.19,1.57a43.27,43.27,0,0,1,7,10.79c1.35,3.2,1.72,3.93,1.88,3.4a8.44,8.44,0,0,0-.69-3.59,41.84,41.84,0,0,0-2.05-4.45C151.11,32.51,151.56,33.74,151.94,35Z"/><path class="cls-1" d="M123.17,12.5l0.2,0a31.64,31.64,0,0,1,12,3.17,33.44,33.44,0,0,0-14.23-3.63C121.8,12.23,122.48,12.39,123.17,12.5Z"/><path class="cls-1" d="M120.33,11.88l0.47,0c-0.36,0-.71-0.07-1.07-0.1Z"/><path class="cls-1" d="M127.93,77.34a23.36,23.36,0,0,0,8.8-6.44,29.37,29.37,0,0,1-4.53,3.85s0,0.07-.33.21l0.33-.21s-0.06-.07.08-0.18a23.66,23.66,0,0,1-3.91,2.34Z"/><path class="cls-1" d="M141.9,37.33A27.64,27.64,0,0,0,135.12,29a30.11,30.11,0,0,0-2.53-1.81,28.62,28.62,0,0,1,8.32,9.16,29.55,29.55,0,0,1,3.61,20.23c-0.18.79-.29,1.59-0.54,2.34a27.66,27.66,0,0,0,.76-2.86,42.15,42.15,0,0,0,0-10.64q-0.15-1.49-.35-2.92a27.28,27.28,0,0,0-.94-2.83,26.3,26.3,0,0,0-11.29-13.34L131.6,26A29.22,29.22,0,0,1,141.9,37.33Z"/><path class="cls-1" d="M144,37.33c-0.3-.57-0.62-1.13-1-1.67,0.17,0.36.34,0.73,0.49,1.1q0.62,1.27,1.11,2.58Q144.33,38.31,144,37.33Z"/><path class="cls-1" d="M145.73,44.73a35.52,35.52,0,0,0-1-5c-0.22-.62-0.48-1.22-0.75-1.81a33,33,0,0,1,1.62,6.28C145.65,44.41,145.69,44.57,145.73,44.73Z"/><path class="cls-1" d="M133.37,72.1c-0.53.28-1,.6-1.58,0.85a24.59,24.59,0,0,0,10.63-8.8,30.23,30.23,0,0,1-6.94,8.92c-0.87.86-1.88,1.55-2.47,2.14-0.39.46-.8,0.9-1.16,1.33a23.37,23.37,0,0,0,3.78-2.9c-0.13.14-.08,0.17-0.06,0.2a29.59,29.59,0,0,0,4.26-4.52A24.83,24.83,0,0,1,131.42,77c-0.15.17-.28,0.33-0.39,0.48a28.31,28.31,0,0,0,9.21-7.76l0.32-.54A35.76,35.76,0,0,0,144.26,59,25.25,25.25,0,0,1,133.37,72.1Z"/><path class="cls-1" d="M145.64,44.42c0.12,0.83.22,1.67,0.29,2.52,0-.68-0.11-1.35-0.19-2C145.71,44.75,145.68,44.58,145.64,44.42Z"/><path class="cls-1" d="M127.8,77.83l-0.37.17C127.78,77.9,127.81,77.87,127.8,77.83Z"/><path class="cls-1" d="M104.77,15.89c1.35-.49,2.61-0.88,3.82-1.25-0.7.16-1.4,0.34-2.09,0.53S105.34,15.64,104.77,15.89Z"/><path class="cls-1" d="M120.18,22.42a22.4,22.4,0,0,0-6.84.45A49.26,49.26,0,0,1,120.18,22.42Z"/><path class="cls-1" d="M123.49,14.24h0Z"/><path class="cls-1" d="M148.33,30.77c-0.25-.46-0.51-0.92-0.79-1.38l0.06,0.07c0.54,0.87,1.15,1.82,1.7,2.78a39,39,0,0,0-4.62-6.83,40.13,40.13,0,0,1,5.38,11.09c-0.27-.9-0.71-1.75-1.06-2.63A30.91,30.91,0,0,0,141.62,24a36.9,36.9,0,0,1,4.74,7.2c0.58,0.9,1.14,1.83,1.64,2.79,0.31,0.66.6,1.33,0.87,2-0.56-1.16-1.18-2.31-1.86-3.44h0A38.48,38.48,0,0,1,149.58,38q0.51,1.52.88,3.06c0.18,0.56.33,1.12,0.52,1.68-0.06-.49-0.15-1-0.25-1.47,0.23,0.75.44,1.47,0.62,2.15l0-.18a36,36,0,0,0-1-3.68l-0.12-.43,0.4,1.06a18.61,18.61,0,0,1,.73,3.06l0.1,0.43-0.07-.25a42.4,42.4,0,0,1,.33,4.57l0.1,0.49h-0.22C151,44.61,150.19,40,148.37,36c0.2,0.56.39,1.13,0.57,1.7-0.27-.9-0.71-1.75-1.06-2.63-0.2-.43-0.41-0.85-0.63-1.26a36.35,36.35,0,0,0-2.81-4.23l0.33,0.34a35.3,35.3,0,0,0-14.51-11.14c-4.43-2-8.8-3.56-13.66-3.48a35.78,35.78,0,0,1,3.65,0,31.67,31.67,0,0,1,12.1,3.18A33.43,33.43,0,0,0,116,14.75l-1.05.14A36.07,36.07,0,0,0,104,17l0.69-.32a40.7,40.7,0,0,1,12-2.6c0.4,0.22.36,0.36,0,.48a35.75,35.75,0,0,1,5.89-.06,23,23,0,0,0-4.88-.45l0.36,0c-1.49,0-3,.08-4.62.24a33.71,33.71,0,0,0-5.27.88,38.59,38.59,0,0,1,8.4-1.4,35.83,35.83,0,0,1,3.7.22l1.06,0,0.76,0.05-1.3-.19q1.23,0.11,2.47.3l0.18,0h0.06a31.91,31.91,0,0,1,9.94,3,33.39,33.39,0,0,0-11.87-3.48,33.6,33.6,0,0,1,4.69,1,32.91,32.91,0,0,0-6.44-.91l-1.94-.2c-0.65,0-1.29,0-1.94.08,0.24,0,.5-0.06.73-0.09l0.48-.05-0.34,0h0.7a34.3,34.3,0,0,1,11,.64,26,26,0,0,0-8.94-1.56c1.1-.06,2.23-0.1,3.36-0.05-0.91-.19-1.83-0.34-2.75-0.46s-1.58,0-2.37.08c0.25,0,.51-0.06.74-0.09l0.84-.09a35.23,35.23,0,0,0-4.36-.2,34.16,34.16,0,0,0-18.68,8.11q0.72-.5,1.47-1c0.28-.2.55-0.39,0.83-0.58A32.38,32.38,0,0,1,120.36,13c-0.92-.11-1.85,0-2.78-0.07A34,34,0,0,0,109,14.34c0.44-.07.87-0.14,1.31-0.19-0.57.15-1.12,0.32-1.7,0.49a35.85,35.85,0,0,1,7.91-.84,36.07,36.07,0,0,0-10.23,1.88c-1,.27-2,0.56-2.81.83a31.85,31.85,0,0,0-7.91,5.59,34.12,34.12,0,0,0-8.36,12,36.1,36.1,0,0,1,1.44-3.42,32.71,32.71,0,0,1,7.76-10A34.73,34.73,0,0,0,86.08,35.58c0.07-.24.15-0.5,0.22-0.72A31.17,31.17,0,0,1,97.46,19.18c-0.37.23-.74,0.46-1.1,0.71L96.23,20c-3.82,3.06-7.18,6.3-9.37,10.73a36.73,36.73,0,0,1,1.66-3.32,32.59,32.59,0,0,1,8.39-9.46A34.6,34.6,0,0,0,85.66,32.1c0.08-.24.19-0.48,0.27-0.7A37.67,37.67,0,0,1,90,23.47,40.59,40.59,0,0,0,81,49.34a37.15,37.15,0,0,0,13.55,29l9.93,4.42,0,0a5.79,5.79,0,0,0,1.43.93,19.92,19.92,0,0,0,3,1.13,15.83,15.83,0,0,0,2.81.58c0.79,0,1.69.38,2.45,0.34s3.16,0,3.93-.09a2.75,2.75,0,0,0,.92-0.27c0.74-.11,1.1-0.29.85-0.48l-0.1-.07c0.18-.16.37-0.34,0.6-0.52a1.83,1.83,0,0,0,.58-1.18h0a2.7,2.7,0,0,1,.22-0.7c0.49-.91-0.25-1,0-2.14a2.16,2.16,0,0,0-.47-1.68s-0.06.11-.09,0.14a6.12,6.12,0,0,0-2.84-2.87,22.17,22.17,0,0,0-4.61-1.51,0.92,0.92,0,0,1,0,.14c-0.51,0-.83-0.41-1.4-0.42,0,0.15-.05.33,0,0.48a7.05,7.05,0,0,1-2.46-.61c-0.69-.24-3.2-1.84-4-1.77,0.13,0.48,2.82,1.49,3.09,2-0.38,0-.78,0-1.16,0a0.59,0.59,0,0,1-.33.51l-1-.61A13.42,13.42,0,0,0,104.45,73a27.37,27.37,0,0,1-6.59-5.32,25.65,25.65,0,0,1-7-16.12s0,0.06,0,.06a25.83,25.83,0,0,1,.08-4.39,26.46,26.46,0,0,1,.53-4,27.23,27.23,0,0,1,2-5.32A27.21,27.21,0,0,0,91.26,51,25.22,25.22,0,0,0,98,66.2l0.41,0.43a28,28,0,0,1-6.08-11.75q0.08,0.26.17,0.52A26.27,26.27,0,0,0,96,63c0.57,0.82,1.19,1.59,1.82,2.33a28.16,28.16,0,0,1-3.4-5.56,28.41,28.41,0,0,0,5.42,6.73c0.16,0.14,1.08.6,1.25,0.74a29.93,29.93,0,0,1-7.81-13.45,27.72,27.72,0,0,0,4.92,9.64c0.68,0.86,1.42,1.66,2.17,2.43a29.41,29.41,0,0,1-6.3-10.91A24.66,24.66,0,0,1,93,50a25,25,0,0,1,.44-6.23,25.42,25.42,0,0,1,9.12-15.31c0.56-.4,1.09-0.86,1.68-1.21a24.8,24.8,0,0,0-9.94,11.26,24.55,24.55,0,0,1,1.34-3,20.87,20.87,0,0,1,1.18-2,28.38,28.38,0,0,0-4.3,8.32,28.66,28.66,0,0,1,2-5.93A27.06,27.06,0,0,1,111,23.61a17.47,17.47,0,0,1,2.34-.73l-1.81.26a21.32,21.32,0,0,1,11.24-.77,30.7,30.7,0,0,1,10.7,4.37,26.8,26.8,0,0,1,10.37,12.8,28.67,28.67,0,0,0-1.16-4c-0.58-.94-1.27-1.95-2-2.93l-0.2-.35,0,0.06a23.34,23.34,0,0,0-2.31-2.57L138,29.71c-0.13-.17-0.28-0.32-0.42-0.47l-0.79-.59a31,31,0,0,0-7.36-4.75l-0.72-.29c-0.74-.28-1.81-0.79-2.55-1,1.14,0.4,2.23.84,3.27,1.33a22,22,0,0,1,8.15,5.35,3.57,3.57,0,0,1,.47.43l0.12,0.11c1,0.44,2.69,2.55,3.86,4.56-0.07-.27.16,0.1,0.36,0.37a21.75,21.75,0,0,0-1.17-2.36,32.93,32.93,0,0,1,1.67,2.93L143,35.53c0.29,0.44.57,0.88,0.84,1.32a31.49,31.49,0,0,0-3.09-6.17c0.14,0.18.27,0.37,0.39,0.54a32,32,0,0,1,5.54,12.46q-0.09-.52-0.19-1c0.08,0.27.15,0.55,0.22,0.82,0.09,0.56.16,1.11,0.23,1.68a27.21,27.21,0,0,1,.26,4.77c-0.16,6.26-2.59,13-6.08,18.71a29.62,29.62,0,0,0,3.72-7.16c-0.16.6-.34,1.2-0.54,1.79A28.06,28.06,0,0,1,140,70.38q-0.43.62-.86,1.23c0.21-.29.4-0.59,0.59-0.9A30.56,30.56,0,0,1,130.74,78a0.33,0.33,0,0,0,.29.52,28.76,28.76,0,0,0,10.23-8.56,18.39,18.39,0,0,1-1,1.66c0.69-.95,1.35-1.94,2-3a33.93,33.93,0,0,0,4.15-8.38l0-.19c0.07-.28.14-0.58,0.2-0.9q0.48-1.48.84-3c0,0.17,0,.35,0,0.53l0.41-1.91a29.65,29.65,0,0,1-1,5.31c-0.67,2.65-1.84,5.16-1.71,5.19-0.12.25-.24,0.5-0.37,0.74a32.78,32.78,0,0,0,4.07-17.1,4.1,4.1,0,0,1,.52,1.29c0,0.82,0,1.64-.1,2.47a33.31,33.31,0,0,1-.76,6.29,0.18,0.18,0,0,0,0-.13,37.35,37.35,0,0,0,.78-5.84,33.77,33.77,0,0,1-4.78,14.59,31.92,31.92,0,0,1-9.49,10.31,32,32,0,0,1-4,2s0,0.08-.41.16l0.41-.16s-0.06-.09.12-0.18a26.07,26.07,0,0,1-4.81,1.68l-0.59.37a28.22,28.22,0,0,0,6.89-2.38l-0.32.19c-1.15.75-2.63,1.68-3.41,2.2-0.53.41-.86,0.4-1.35,0.79a26,26,0,0,0,4.79-2.32c-0.17.12-.12,0.17-0.1,0.2a32.82,32.82,0,0,0,5.67-4A27.57,27.57,0,0,1,127,83.05c-0.2.15-.45,0.11-0.6,0.25a32.33,32.33,0,0,0,20.8-18.47,35,35,0,0,0,1.35-4.1l0,0c0.07-.28.15-0.56,0.21-0.84S149,59.27,149,59v0l0-.06a0.46,0.46,0,0,0,0,.09,34.35,34.35,0,0,1-1.86,5.86,35.45,35.45,0,0,1-2,4.34C141.4,75.89,133.88,81.68,126,83.95c-0.17.27,0.19,0,.54,0.15A33.16,33.16,0,0,0,147.06,68l0.09-.2c1.64-3.56,3.82-9.59,3.8-14.49,0-.08,0-0.16,0-0.24,0.1-1,.15-1.91.16-2.88a59.79,59.79,0,0,1-.49,8,27,27,0,0,1-1.1,4.26c-0.16.6-.35,1.25-0.54,1.92l0.87-2A33.67,33.67,0,0,1,147.62,68c-1.36,2.86-3.27,5.41-3,5.31A29.4,29.4,0,0,0,148,67.92a39.28,39.28,0,0,0,3.81-11.49c0.3-.93.56-0.06,0.66,1a39.42,39.42,0,0,1-8.26,16.7c-0.19.71-2.12,2.57-2.9,3.56a31.67,31.67,0,0,0,7.35-9.08A37.45,37.45,0,0,1,144,75.31a37.37,37.37,0,0,0,8.54-17.24,4.54,4.54,0,0,1-.06.88c0,0.11,0,.25,0,0.38a35.27,35.27,0,0,0,.74-3.47c0.12-1,.19-2,0.22-3,0.07-.38.14-0.76,0.2-1.15a33.66,33.66,0,0,1-.42,4.13A39.48,39.48,0,0,1,152,62.09l0,0.16a39.27,39.27,0,0,0,1.81-7.89A38.81,38.81,0,0,0,152,39.66c0.28,0.78.55,1.55,0.79,2.35a29.09,29.09,0,0,1,1,12.35,41.84,41.84,0,0,1-3.32,13.41,36.27,36.27,0,0,0,3.16-9.08A38.53,38.53,0,0,0,148.33,30.77ZM82.11,51.58a4.71,4.71,0,0,0,.08.51s0,0.06,0,.08A5.57,5.57,0,0,1,82.11,51.58Zm1.28-10.35c-0.06.29-.12,0.6-0.16,0.92a35.91,35.91,0,0,0-1,7.42,2.36,2.36,0,0,1-.09-0.29c0,0.14,0,.28,0,0.42A1,1,0,0,1,82,49.13a21.5,21.5,0,0,1,.51-5.34,59.78,59.78,0,0,1,2.09-6.91A34.87,34.87,0,0,0,83.38,41.23Zm20.5,34H103.6a21.61,21.61,0,0,1-5.52-3.9A29.64,29.64,0,0,0,103.88,75.2Zm-6,.22c0.39,0.3.78,0.59,1.15,0.86l0,0a22.12,22.12,0,0,0-2-1.18S97.91,75.46,97.92,75.42ZM93,62.23l0,0V62.18ZM92.9,44.5c0.11-.65.23-1.29,0.39-1.93a25.11,25.11,0,0,0-.46,2.74C92.85,45,92.87,44.77,92.9,44.5Zm0-19.48a19.51,19.51,0,0,1,1.87-2.07c0.32-.32.66-0.64,1-0.95s0.78-.58,1.18-0.86,0.62-.45.94-0.66l-0.47.33a33.59,33.59,0,0,1,12-5,32.3,32.3,0,0,0-3.5,1,31.73,31.73,0,0,0-9,4.77L96.37,22a35.43,35.43,0,0,0-3.62,3.13Zm12.56-1.53c-2,1.3-5.69,3.5-8,6.21a28.16,28.16,0,0,0-2.12,2.76A29.24,29.24,0,0,0,90,47.72a25.26,25.26,0,0,0,.61,7.1c0.18,0.73.32,1.47,0.51,2.18l0,0.12a25.13,25.13,0,0,1-.62-2.66C90.27,53.73,90,53,90,52.62a25.4,25.4,0,0,1,.8-10.54,1.26,1.26,0,0,0,0-.79c1-2.47,1.3-4,2.75-6.33-0.24.3-.47,0.62-0.7,0.93a25.32,25.32,0,0,1,2.43-4,31.8,31.8,0,0,1,2.48-3,33.65,33.65,0,0,1,9.05-6.17C106.49,23,105.76,23.27,105.43,23.49ZM92.14,31.65l0-.09,0,0Zm24.8-16.18a29.85,29.85,0,0,0-19.79,8.2,30.7,30.7,0,0,0-7.51,10.81,33,33,0,0,1,1.29-3.07,29.39,29.39,0,0,1,7-9,31.22,31.22,0,0,0-9.25,13.37c0.06-.22.14-0.44,0.2-0.65A28,28,0,0,1,100,20.27a29.11,29.11,0,0,1,19.46-4.74C118.62,15.44,117.78,15.49,116.94,15.47ZM143.8,34.18L144,34.64a27.23,27.23,0,0,0-2.26-3.16,39,39,0,0,0-10-8.66l0,0a40.52,40.52,0,0,1,7.7,5.79,40.73,40.73,0,0,0-6.07-5.24A15.57,15.57,0,0,1,136,25.16a46.71,46.71,0,0,1,4.62,4.35,35.06,35.06,0,0,0-8.9-7.26l-0.11-.07a35.48,35.48,0,0,1,13.09,12.39l0.14,0.28a45.45,45.45,0,0,0-4.22-5.34,42.5,42.5,0,0,1,4,5.3q-1-1.57-2.22-3a43.71,43.71,0,0,0-3-3.21A42.18,42.18,0,0,1,143.8,34.18Zm0.79,2.47c-0.2-.47-0.4-0.92-0.62-1.37s-0.42-.81-0.64-1.19a32.16,32.16,0,0,1,2,3.78c0.17,0.5.33,1,.47,1.51C145.41,38.48,145,37.56,144.59,36.65Zm1.07,30.24a35.29,35.29,0,0,0,2.56-7.1c0,0.15,0,.28,0,0.4A32.58,32.58,0,0,1,145.66,66.89Zm2.78-6.13a14.12,14.12,0,0,1-.6,1.56,14.79,14.79,0,0,0,.53-1.51l0.08-.21C148.46,60.65,148.45,60.71,148.45,60.76Zm0.32-1s0-.06,0-0.1l0,0Zm-1.4-22.33A22.05,22.05,0,0,1,148.42,40C148.11,39.21,147.76,38.34,147.36,37.47Zm2.18,18.44c-0.07.36-.14,0.72-0.22,1.07,0.17-1.06.29-2.13,0.36-3.22,0-.27.06-0.55,0.09-0.82C149.74,53.93,149.66,54.92,149.54,55.91Zm1.39-3.31a36,36,0,0,0-2.5-13.26q0.4,1.21.7,2.44-0.38-1.37-.88-2.69a0.41,0.41,0,0,0,.17.26,34.5,34.5,0,0,1,2.38,7.73,23.21,23.21,0,0,1,.25,2.36C151.08,50.49,151,51.55,150.94,52.6ZM153,44.76c0.14,0.63.26,1.29,0.36,2a37.83,37.83,0,0,1,0,3.79c0-.1,0-0.2,0-0.3q-0.07-1.84-.3-3.69c-0.08-1-.21-2-0.37-2.93C152.86,44,153,44.37,153,44.76Z"/><path class="cls-1" d="M123,90.16h11.36c4.4,0,8.93,2.06,8.93,7.48a6.59,6.59,0,0,1-5.06,6.51v0.08a7,7,0,0,1,6.29,7.18c0,6.47-5.51,8.49-11,8.49H123V90.16Zm5.18,12.1h4.73c3.46,0,5.18-1.51,5.18-3.74,0-2.56-1.73-3.82-5.64-3.82h-4.28v7.57Zm0,13.11h4.77c2.68,0,6.38-.47,6.38-4.37,0-3.11-2-4.2-6.17-4.2h-5v8.57Z"/><path class="cls-1" d="M161.8,89.4c9.09-.17,15.51,6,15.51,15.59,0,9.28-6.42,15.5-15.51,15.67-9,0-15.38-6.22-15.38-15.5C146.42,95.63,152.83,89.4,161.8,89.4Zm0,26.47c6,0,10-4.71,10-11,0-5.92-4-10.63-10-10.63s-10,4.71-10,10.63C151.84,111.17,155.83,115.88,161.84,115.88Z"/><path class="cls-1" d="M180.6,90.16h11.48c7.65,0,14.81,4.79,14.81,14.87s-8.44,14.87-15.43,14.87H180.6V90.16Zm9,25c6.5,0,11.81-2.86,11.81-10.08S196.85,95,190.51,95h-4.73v20.17h3.87Z"/><path class="cls-1" d="M216.47,107.18l-10.94-17H212L219.18,102l7.24-11.85h6.17l-10.94,17v12.73h-5.18V107.18Z"/><path class="cls-1" d="M21.07,90.16h5.14l9.87,23.32h0.08l10-23.32h5v29.75H47.69V95H47.6l-10.45,25h-2.1L24.61,95H24.53v25H21.07V90.16Z"/><path class="cls-1" d="M55.91,90.16h3.45v29.75H55.91V90.16Z"/><path class="cls-1" d="M64.14,90.16H68.5l16.87,24.7h0.08V90.16H88.9v29.75H84.54L67.68,95.2H67.6v24.7H64.14V90.16Z"/><path class="cls-1" d="M94,90.16h11.19c5.72,0,14.27,3.91,14.27,14.87s-8.56,14.87-14.27,14.87H94V90.16Zm3.45,26.47H104c6.67,0,11.72-3.45,11.72-11.6s-5.06-11.6-11.72-11.6H97.42v23.19Z"/><path class="cls-1" d="M226.52,116.32a2.81,2.81,0,0,1,.62-0.89,2.88,2.88,0,0,1,.91-0.6,2.85,2.85,0,0,1,1.1-.21,2.82,2.82,0,0,1,1.1.21,2.82,2.82,0,0,1,1.52,1.49,2.73,2.73,0,0,1,.23,1.11,2.8,2.8,0,0,1-.23,1.13,2.88,2.88,0,0,1-.61.9,2.75,2.75,0,0,1-.9.59,2.86,2.86,0,0,1-1.1.21,2.89,2.89,0,0,1-1.1-.21,2.78,2.78,0,0,1-.91-0.59,2.85,2.85,0,0,1-.62-0.9,2.8,2.8,0,0,1-.23-1.13A2.73,2.73,0,0,1,226.52,116.32ZM227,118.4a2.35,2.35,0,0,0,.49.77,2.26,2.26,0,0,0,.74.51,2.3,2.3,0,0,0,.93.19,2.27,2.27,0,0,0,1.66-.7,2.34,2.34,0,0,0,.49-0.77,2.56,2.56,0,0,0,.18-1,2.51,2.51,0,0,0-.18-0.95,2.3,2.3,0,0,0-1.23-1.27,2.28,2.28,0,0,0-.92-0.19,2.3,2.3,0,0,0-2.16,1.46,2.51,2.51,0,0,0-.18.95A2.56,2.56,0,0,0,227,118.4Zm2.34-2.61a1.36,1.36,0,0,1,.88.24,0.87,0.87,0,0,1,.28.71,0.8,0.8,0,0,1-.25.66,1.13,1.13,0,0,1-.62.25l0.95,1.46H230l-0.9-1.42h-0.55v1.42H228v-3.31h1.28Zm-0.23,1.47h0.33a0.8,0.8,0,0,0,.28-0.06,0.43,0.43,0,0,0,.19-0.16,0.55,0.55,0,0,0,.07-0.31,0.48,0.48,0,0,0-.06-0.27,0.44,0.44,0,0,0-.17-0.15,0.74,0.74,0,0,0-.23-0.07l-0.26,0h-0.68v1.05h0.54Z"/></svg>