<svg xmlns="http://www.w3.org/2000/svg" width="19" height="19" viewBox="0 0 19 19">
  <path id="Path_6" data-name="Path 6" d="M-2.25-8.437V-4.5a1.081,1.081,0,0,1-.334.791,1.081,1.081,0,0,1-.791.334h-.562a2.174,2.174,0,0,1-1.6-.65,2.174,2.174,0,0,1-.65-1.6V-7.312a2.174,2.174,0,0,1,.65-1.6,2.174,2.174,0,0,1,1.6-.65h.563a1.081,1.081,0,0,1,.791.334A1.081,1.081,0,0,1-2.25-8.437ZM3.938-3.375H3.375a1.081,1.081,0,0,1-.791-.334A1.081,1.081,0,0,1,2.25-4.5V-8.437a1.081,1.081,0,0,1,.334-.791,1.081,1.081,0,0,1,.791-.334h.563a2.174,2.174,0,0,1,1.6.65,2.174,2.174,0,0,1,.65,1.6v1.688a2.174,2.174,0,0,1-.65,1.6A2.174,2.174,0,0,1,3.938-3.375ZM0-15.75a8.544,8.544,0,0,1,4.535,1.266,9.156,9.156,0,0,1,3.182,3.27A9.25,9.25,0,0,1,9-6.75V-.914a3.045,3.045,0,0,1-.932,2.232,3.045,3.045,0,0,1-2.232.932h-6.4a1.627,1.627,0,0,1-1.2-.492A1.627,1.627,0,0,1-2.25.563a1.627,1.627,0,0,1,.492-1.2,1.627,1.627,0,0,1,1.2-.492H.563a1.627,1.627,0,0,1,1.2.492A1.627,1.627,0,0,1,2.25.563H5.836A1.418,1.418,0,0,0,6.873.123,1.418,1.418,0,0,0,7.313-.914V-6.75a7.131,7.131,0,0,0-.984-3.656,7.3,7.3,0,0,0-2.672-2.672A7.131,7.131,0,0,0,0-14.062a7.131,7.131,0,0,0-3.656.984,7.3,7.3,0,0,0-2.672,2.672A7.131,7.131,0,0,0-7.312-6.75v.563a.548.548,0,0,1-.158.4.548.548,0,0,1-.4.158h-.562a.548.548,0,0,1-.4-.158A.548.548,0,0,1-9-6.187V-6.75a9.25,9.25,0,0,1,1.283-4.465,9.156,9.156,0,0,1,3.182-3.27A8.544,8.544,0,0,1,0-15.75Z" transform="translate(9.5 16.25)" fill="#fbfbfb" stroke="rgba(0,0,0,0)" stroke-width="1"/>
</svg>
